<?xml version="1.0" encoding="UTF-8" standalone="no"?><!DOCTYPE svg PUBLIC "-//W3C//DTD SVG 1.1//EN" "http://www.w3.org/Graphics/SVG/1.1/DTD/svg11.dtd"><svg width="100%" height="100%" viewBox="0 0 154 241" version="1.1" xmlns="http://www.w3.org/2000/svg" xmlns:xlink="http://www.w3.org/1999/xlink" xml:space="preserve" xmlns:serif="http://www.serif.com/" style="fill-rule:evenodd;clip-rule:evenodd;stroke-linejoin:round;stroke-miterlimit:1.41421;"><g><g><path d="M39.093,0c7.324,0.037 14.523,3.746 19.02,9.691c7.054,-2.264 15.268,-0.542 20.637,4.702c2.628,2.567 4.535,5.855 5.512,9.395c1.867,-0.714 3.849,-1.164 5.854,-1.383c0,0 0.886,-0.43 1.564,-0.736c7.468,-3.37 16.547,-1.672 24.12,1.81c11.222,5.159 20.926,13.916 27.324,24.414c0.332,0.544 0.639,1.055 1.176,1.6c0.306,0.312 0.343,0.359 0.499,0.528c6.238,6.777 10.095,16.103 8.626,25.382c-0.293,1.849 -0.812,3.658 -1.509,5.4c0,0 -0.238,0.507 -0.261,0.549c-0.044,0.081 -0.043,0.081 -0.088,0.162c-0.169,0.305 -0.426,0.743 -0.426,0.743c0,0 0.841,1.536 0.786,3.103c0,0 0.011,76.749 0.011,114.974c-0.036,4.245 -3.322,6.29 -6.283,6.344c-45.957,0.297 -91.917,0.001 -137.876,0.001c-3.224,-0.021 -6.34,-2.748 -6.34,-6.033c0,-4.384 -0.004,-84.285 -0.004,-84.285c0,0 0.021,-6.73 2.012,-9.085c1.373,-2.141 3.025,-4.093 4.824,-5.882c0,0 -0.962,-1.384 -1.652,-2.711c-2.412,-4.638 -2.639,-10.326 -0.763,-15.246c-5.599,-5.593 -7.943,-15.209 -3.62,-22.568c0.286,-0.488 0.744,-1.153 0.744,-1.153c0.385,-0.954 1.178,-2.603 2.097,-4.009c0.576,-0.882 1.213,-1.723 1.901,-2.525c0,0 -0.972,-0.976 -1.66,-1.802c-5.7,-6.848 -6.593,-16.961 -3.195,-25.504c3.409,-8.572 10.709,-15.619 19.542,-18.426c0,0 0.69,-0.685 1.279,-1.228c4.243,-3.907 9.99,-6.128 15.753,-6.22c0.132,-0.001 0.264,-0.002 0.396,-0.002Z" style="fill:#fff;fill-rule:nonzero;"/><path d="M100.779,24.122c7.837,0.059 15.381,3.686 21.913,8.298c6.988,4.933 13.097,11.288 17.361,18.626c0.382,0.658 0.919,1.109 1.397,1.617c6.321,6.73 9.996,16.518 6.935,25.461c-0.16,0.468 -0.427,1.125 -0.427,1.125c0,0 -1.654,3.148 -2.858,3.713c1.472,0.477 2.627,1.13 2.577,2.261c-0.008,0.191 -1.619,3.814 -1.556,4.771c0.988,15.038 -109.27,51.366 -140.136,28.523c-0.419,-0.31 -0.619,-6.282 0.924,-8.76c1.707,-2.74 4.562,-5.864 7.524,-8.113c0,0 0.105,0.026 -0.228,-0.241c-3.107,-2.523 -5.154,-6.315 -5.378,-10.278c-0.173,-3.074 0.715,-6.176 2.273,-8.817c0,0 -0.718,-0.523 -1.253,-0.973c-5.543,-4.653 -7.764,-13.493 -3.107,-19.555c1.333,-3.587 3.777,-6.721 6.893,-8.975c0,0 0.256,0.092 -0.282,-0.199c-5.263,-2.88 -8.664,-8.635 -9.02,-14.874c-0.668,-11.723 8.033,-23.472 19.778,-26.565c0.051,-0.062 0.102,-0.124 0.153,-0.185c4.453,-5.283 11.871,-7.781 18.697,-6.316c5.743,1.232 10.845,5.202 13.513,10.362c0.044,-0.025 0.089,-0.051 0.134,-0.076c5.41,-2.998 12.492,-2.636 17.566,1.115c4.54,3.356 7.084,9.156 6.505,14.823c0,0 1.263,-1.112 2.477,-1.85c2.51,-1.527 5.435,-2.306 8.38,-2.489c0,0 1.096,-0.672 2.141,-1.113c2.185,-0.923 4.57,-1.31 6.95,-1.317c0.051,0 0.103,0 0.154,0.001Zm-0.18,11.338c-1.192,0.008 -2.447,0.139 -3.317,0.929l-0.869,0.648c-0.325,0.157 -0.637,0.346 -0.976,0.471c-0.969,0.358 -1.203,0.366 -2.332,0.344c-2.047,-0.03 -4.324,0.368 -5.404,2.257c-1.013,1.77 -0.794,4.012 -0.381,5.939c0.927,4.317 3.302,8.24 6.135,11.673c4.329,5.246 9.934,9.591 16.292,11.765c1.139,0.39 2.305,0.701 3.493,0.9c0,0 0.61,0.111 1.02,0.255c1.369,0.48 2.361,1.652 3.324,2.643c1.036,1.065 2.186,2.024 3.409,2.85l0.883,0.737c0.632,0.795 0.866,0.965 1.235,1.928c1.103,2.87 -0.539,6.459 -3.556,7.43c-0.861,0.276 -2.658,0.423 -3.337,0.478c-1.317,0.107 -2.668,-0.192 -3.762,-0.924c-0.946,-0.632 -1.69,-1.494 -2.578,-2.206c-3.514,-2.82 -7.775,-4.805 -12.244,-5.429l-0.93,-0.211c-0.933,-0.385 -0.914,-0.312 -1.845,-0.985c-3.877,-2.771 -9.518,-1.972 -13.402,0.261c-5.57,3.204 -9.438,9.305 -9.667,15.642c-0.06,1.661 0.15,3.334 0.676,4.917l0.247,1.098c0.022,0.994 0.102,1.263 -0.173,2.234c-0.508,1.791 -1.969,3.311 -3.78,3.871c-0.965,0.298 -1.236,0.224 -2.23,0.225l-6.345,-0.624l-4.748,2.307l-1.061,0.39c-0.075,0.02 -0.149,0.039 -0.224,0.06c-0.499,0.137 -0.991,0.301 -1.474,0.491l-0.923,0.276c-0.967,0.116 -1.942,0.145 -2.86,-0.144c-0.782,-0.247 -1.471,-0.674 -2.216,-0.986c-7.335,-3.071 -16.234,-1.892 -23.126,2.189c-3.278,1.941 -6.205,4.636 -7.826,8.074l-0.541,0.914c-0.621,0.704 -0.738,0.938 -1.54,1.449c-0.299,0.19 -0.617,0.353 -0.946,0.484c-0.794,0.318 -2.193,0.529 -2.908,0.668c46.553,2.763 91.241,-8.38 134.439,-30.784l-7.166,-2.752l-0.964,-0.48c-0.757,-0.578 -1.003,-0.68 -1.574,-1.459c-1.28,-1.745 -1.436,-4.225 -0.379,-6.118c0.496,-0.888 0.67,-1.042 1.512,-1.748c2.37,-2.01 2.78,-5.762 2.141,-8.627c-0.814,-3.652 -2.975,-6.931 -5.773,-9.496l-0.053,-0.048c-0.702,-0.758 -0.693,-0.628 -1.318,-1.772c-4.203,-7.601 -10.765,-13.933 -18.336,-18.216c-3.575,-2.022 -7.538,-3.703 -11.453,-3.786c-0.09,-0.002 -0.179,-0.002 -0.269,-0.002Zm-65.069,57.268c4.141,1.191 8.758,0.508 12.923,-0.926c3.432,-1.181 6.776,-2.938 9.107,-5.686c0.679,-0.8 1.345,-1.704 1.436,-2.7c0.038,-0.414 -0.082,-0.506 -0.197,-0.652c-0.389,-0.493 -0.984,-0.803 -1.581,-1.065l-0.956,-0.537c-0.739,-0.628 -0.983,-0.743 -1.519,-1.568c-0.329,-0.508 -0.527,-1.105 -1.147,-1.451c-1.857,-1.038 -4.136,-1.197 -6.35,-1.19c-6.451,0.02 -13.038,2.091 -18.202,5.73l-0.062,0.044c-0.855,0.506 -0.777,0.534 -1.882,0.875c-2.778,0.869 -5.522,2.547 -6.639,5.266c-0.425,1.035 -0.419,2.305 0.336,3.198c1.284,1.521 3.536,2.019 5.656,2.02c1.809,0.001 3.606,-0.403 5.276,-1.119l0.921,-0.305c0.958,-0.143 0.96,-0.143 1.929,-0.121c0.317,0.063 0.634,0.125 0.951,0.187Zm-11.864,-31.969c-1.672,0.014 -3.276,0.941 -4.493,2.177c-0.885,0.9 -1.581,1.966 -1.936,3.197l-0.341,0.913c-0.465,0.802 -0.467,0.804 -1.056,1.519c-0.57,0.585 -0.362,1.582 -0.035,2.334c0.73,1.68 2.554,3.179 4.382,2.722c0.258,-0.065 0.497,-0.205 0.651,-0.435l0.697,-0.849c0.283,-0.233 0.544,-0.494 0.848,-0.698c0.611,-0.411 1.296,-0.699 2.016,-0.848c0.594,-0.123 1.211,-0.08 1.79,-0.177c2.321,-0.39 4.304,-2.563 4.402,-4.911c0.061,-1.459 -0.943,-2.988 -2.522,-3.201l-0.027,-0.004c-0.946,-0.217 -1.218,-0.207 -2.074,-0.694c-0.711,-0.404 -1.29,-1.014 -2.17,-1.044c-0.044,-0.001 -0.088,-0.001 -0.132,-0.001Zm37.231,-15.104c-2.35,0.015 -4.702,0.381 -6.899,1.209l-0.121,0.047l-0.799,0.242c-0.871,0.129 -0.82,0.17 -1.819,0.111c-1.86,-0.097 -3.72,0.536 -5.186,1.709l-0.393,0.254l-0.292,0.37c-2.883,2.982 -3.132,8.092 -0.486,11.297c1.572,1.904 4.073,2.989 6.544,2.767l1,-0.001c0.994,0.176 1.971,0.445 2.786,1.023c0.556,0.394 1.005,0.918 1.529,1.36c5.204,4.391 14.042,4.681 19.121,0.257c1.892,-1.649 3.022,-4.318 2.179,-6.773c-0.244,-0.71 -0.615,-1.374 -1.061,-1.982c0,0 -0.331,-0.462 -0.514,-0.815c-0.707,-1.367 -0.419,-3.029 -1.031,-4.372c-1.144,-2.51 -3.731,-4.134 -6.38,-5.199c-2.586,-1.04 -5.416,-1.513 -8.178,-1.504Zm-22.12,-30.087c-2.577,0.029 -5.091,1.379 -6.454,3.57l-0.044,0.072l-0.591,0.805c-0.73,0.696 -1.525,1.323 -2.472,1.637c-0.627,0.207 -1.292,0.259 -1.936,0.41c-6.875,1.603 -12.619,8.771 -11.538,15.899c0.342,2.253 1.83,4.425 4.088,5.133c0.704,0.221 1.444,0.316 2.184,0.321l0.097,0l0.901,0.068c0.777,0.187 0.994,0.19 1.712,0.559c0.463,0.239 0.861,0.587 1.312,0.817c2.022,1.036 4.544,0.442 6.584,-0.389c1.774,-0.723 3.411,-1.776 4.884,-3.017l0.126,-0.107l0.534,-0.37l0.424,-0.503c2.638,-2.555 4.762,-5.794 5.74,-9.376l0.28,-0.791c0.394,-0.74 0.395,-0.741 0.893,-1.415c2.937,-3.41 2.016,-9.305 -2.117,-11.977c-1.361,-0.88 -2.987,-1.355 -4.607,-1.346Zm25.716,8.662c-2.176,0.021 -4.249,1.628 -4.749,3.795c-0.772,3.356 2.706,7.291 6.661,5.647c2.844,-1.183 4.011,-5.318 1.773,-7.809c-0.909,-1.013 -2.242,-1.62 -3.62,-1.633c-0.021,0 -0.043,0 -0.065,0Z" style="fill:#c4ccd9;fill-rule:nonzero;"/><rect x="5.682" y="9.451" width="142.004" height="192.975" style="fill:none;"/><clipPath id="_clip1"><rect x="5.682" y="9.451" width="142.004" height="192.975"/></clipPath><g clip-path="url(#_clip1)"><path d="M117.819,80.831c-1.109,-0.745 -2.185,-1.591 -3.214,-2.538c-0.799,-0.736 -1.54,-1.506 -2.222,-2.303c-5.969,-0.971 -12.837,-4.438 -18.898,-10.019c-11.182,-10.297 -15.415,-23.92 -9.445,-30.402c2.224,-2.415 5.552,-3.501 9.432,-3.379c5.95,-5.462 19.945,-1.314 31.748,9.554c4.578,4.216 8.176,8.845 10.576,13.303c0.039,0.035 0.078,0.071 0.116,0.107c8.368,7.705 10.387,19.144 4.507,25.529c-0.413,0.449 -0.855,0.861 -1.321,1.237l9.001,3.456c0,0 0.461,0.293 0.739,0.469c0.136,0.085 0.252,0.197 0.344,0.329c0.186,0.268 0.495,0.713 0.495,0.713l0.223,1.083l0,113.105c-0.07,0.35 -0.073,0.721 -0.21,1.051c-0.279,0.674 -0.815,1.214 -1.494,1.503c-0.333,0.142 -0.709,0.153 -1.063,0.229l-41.821,0.908l-98.218,0l-1.067,-0.206c-0.304,-0.196 -0.651,-0.338 -0.91,-0.587c-0.714,-0.687 -0.649,-1.022 -0.851,-1.928l-0.143,-58.084l0,-25.599l0.166,-0.938c0.416,-0.722 0.454,-1.005 1.211,-1.451c0.277,-0.163 0.602,-0.228 0.904,-0.342l4.195,-0.816c3.087,-6.578 10.346,-12.189 19.631,-14.315c7.532,-1.725 14.861,-0.804 20.372,2.049c0.759,-0.3 4.074,-2.347 7.866,-3.142c3.899,-0.818 8.617,0.151 8.617,0.151c-2.085,-6.197 -0.842,-13.953 3.897,-20.377c7.088,-9.61 19.333,-12.626 27.326,-6.73c0.037,0.027 0.074,0.055 0.111,0.082c4.714,0.649 9.567,2.575 13.941,5.801c1.161,0.857 2.245,1.773 3.248,2.737l2.211,-0.24Z" style="fill:url(#_Linear2);"/><clipPath id="_clip3"><path d="M117.819,80.831c-1.109,-0.745 -2.185,-1.591 -3.214,-2.538c-0.799,-0.736 -1.54,-1.506 -2.222,-2.303c-5.969,-0.971 -12.837,-4.438 -18.898,-10.019c-11.182,-10.297 -15.415,-23.92 -9.445,-30.402c2.224,-2.415 5.552,-3.501 9.432,-3.379c5.95,-5.462 19.945,-1.314 31.748,9.554c4.578,4.216 8.176,8.845 10.576,13.303c0.039,0.035 0.078,0.071 0.116,0.107c8.368,7.705 10.387,19.144 4.507,25.529c-0.413,0.449 -0.855,0.861 -1.321,1.237l9.001,3.456c0,0 0.461,0.293 0.739,0.469c0.136,0.085 0.252,0.197 0.344,0.329c0.186,0.268 0.495,0.713 0.495,0.713l0.223,1.083l0,113.105c-0.07,0.35 -0.073,0.721 -0.21,1.051c-0.279,0.674 -0.815,1.214 -1.494,1.503c-0.333,0.142 -0.709,0.153 -1.063,0.229l-41.821,0.908l-98.218,0l-1.067,-0.206c-0.304,-0.196 -0.651,-0.338 -0.91,-0.587c-0.714,-0.687 -0.649,-1.022 -0.851,-1.928l-0.143,-58.084l0,-25.599l0.166,-0.938c0.416,-0.722 0.454,-1.005 1.211,-1.451c0.277,-0.163 0.602,-0.228 0.904,-0.342l4.195,-0.816c3.087,-6.578 10.346,-12.189 19.631,-14.315c7.532,-1.725 14.861,-0.804 20.372,2.049c0.759,-0.3 4.074,-2.347 7.866,-3.142c3.899,-0.818 8.617,0.151 8.617,0.151c-2.085,-6.197 -0.842,-13.953 3.897,-20.377c7.088,-9.61 19.333,-12.626 27.326,-6.73c0.037,0.027 0.074,0.055 0.111,0.082c4.714,0.649 9.567,2.575 13.941,5.801c1.161,0.857 2.245,1.773 3.248,2.737l2.211,-0.24Z"/></clipPath><g clip-path="url(#_clip3)"><path d="M113.574,169.223c0,0 34.152,-4.775 34.152,-4.341c0,0.434 0.714,38.916 0.714,38.916l-43.959,1.69l9.093,-36.265Z" style="fill:#005eb8;"/><path d="M22.272,205.362l-18.537,0c-0.016,0 -0.032,0 -0.047,-0.001c-0.03,-0.001 -0.059,-0.003 -0.088,-0.005c-0.007,-0.001 -0.014,-0.002 -0.021,-0.002c-0.155,-0.017 -0.307,-0.058 -0.449,-0.122c-0.078,-0.035 -0.152,-0.077 -0.221,-0.125l-0.003,-0.002l-0.004,-0.003l-0.009,-0.005l-0.005,-0.005c-0.07,-0.049 -0.136,-0.104 -0.196,-0.165c-0.087,-0.088 -0.163,-0.186 -0.225,-0.293c-0.013,-0.023 -0.026,-0.045 -0.038,-0.069l-0.001,-0.002l-0.003,-0.006l-0.007,-0.015l-0.003,-0.005l-0.002,-0.004l-0.007,-0.014l-0.003,-0.008l-0.002,-0.003l-0.002,-0.006l-0.009,-0.019l-0.002,-0.004l0,-0.001l-0.003,-0.008c-0.017,-0.039 -0.032,-0.079 -0.045,-0.12l-0.001,-0.001l0,-0.002l-0.005,-0.013l-0.004,-0.016l-0.001,-0.002l-0.001,-0.002l-0.002,-0.008l-0.006,-0.021l-0.001,-0.003l0,0c-0.006,-0.022 -0.011,-0.043 -0.016,-0.065l-0.001,-0.002l-0.001,-0.007l-0.003,-0.016l-0.002,-0.006l-0.001,-0.005l-0.001,-0.007l-0.002,-0.01l-0.002,-0.01l-0.001,-0.007l-0.001,-0.006l-0.001,-0.006l-0.003,-0.015l-0.001,-0.008l0,-0.002c-0.005,-0.03 -0.008,-0.061 -0.011,-0.091c-0.002,-0.03 -0.004,-0.061 -0.005,-0.091l0,0l0.052,-61.208l0,-0.004l0,-0.014l0,-0.007l-0.001,-0.008l0,-26.957l0.001,-0.017c0,-0.019 0.001,-0.038 0.002,-0.056c0,-0.017 0.001,-0.033 0.002,-0.05c0.011,-0.122 0.036,-0.243 0.076,-0.359c0.027,-0.075 0.059,-0.147 0.097,-0.217c0.036,-0.068 0.078,-0.133 0.125,-0.194c0.081,-0.105 0.176,-0.199 0.281,-0.279c0.095,-0.071 0.198,-0.131 0.306,-0.177l0.001,0l0,-0.001l0.008,-0.003l0.007,-0.003l0.005,-0.002l0.015,-0.006l0.004,-0.001l0,-0.001l0.02,-0.007l0.009,-0.003l0.001,-0.001l0.002,-0.001c0.016,-0.006 0.032,-0.011 0.048,-0.016l0.012,-0.004l0.001,-0.001l0.001,0c0.052,-0.017 0.105,-0.03 0.159,-0.041l0,0l0.005,-0.001l0,0l0,0l31.434,-6.216l22.892,-11.304l0.004,-0.002c0.039,-0.02 0.08,-0.037 0.121,-0.053c0.031,-0.013 0.062,-0.023 0.107,-0.037l0.003,0l0.011,-0.003l0.01,-0.003l0.002,-0.001c0.009,-0.003 0.019,-0.005 0.028,-0.007l0.003,-0.001l0.008,-0.002l0.01,-0.003l0.009,-0.002l0.007,-0.001l0.005,-0.001l0.004,-0.001l0.02,-0.005l0.005,-0.001l0.005,-0.001l0.019,-0.003l0.004,-0.001l0.005,-0.001l0.007,-0.001l0.008,-0.002l0.012,-0.002l0.007,-0.001l0.003,0c0.01,-0.002 0.02,-0.003 0.029,-0.004l0.002,-0.001l0.006,0l0.015,-0.002l0.008,-0.001l0.005,-0.001l0.005,0l0.007,-0.001l0.018,-0.002l0.005,0l0.001,0l0.001,0c0.045,-0.004 0.089,-0.004 0.134,-0.005l0,0l0.001,0l0.027,0.001l0.105,0.006l19.854,1.986l15.321,-15.781l0.012,-0.012c0.018,-0.018 0.035,-0.035 0.053,-0.051c0.008,-0.008 0.016,-0.015 0.025,-0.022c0.019,-0.017 0.039,-0.033 0.059,-0.049l0,0l0,0l0.012,-0.01l0.012,-0.008l0.006,-0.005l0.002,-0.001l0.005,-0.004l0.005,-0.004l0.003,-0.002l0.011,-0.008l0.006,-0.004l0.009,-0.006l0.008,-0.006l0.003,-0.002l0.006,-0.004l0.006,-0.004l0.004,-0.002l0.007,-0.005l0.008,-0.006l0.004,-0.002c0.006,-0.004 0.013,-0.008 0.019,-0.012l0.004,-0.002c0.018,-0.011 0.036,-0.022 0.054,-0.032l0.001,0l0,0l0.011,-0.006l0.007,-0.004l0.001,-0.001l0.002,-0.001l0.008,-0.003l0.007,-0.004l0.003,-0.002l0.003,-0.001l0.004,-0.002l0.008,-0.004l0.006,-0.003l0.002,-0.001l0.001,-0.001l0.007,-0.003c0.037,-0.018 0.075,-0.035 0.114,-0.049c0.051,-0.02 0.084,-0.031 0.117,-0.04c0.037,-0.01 0.075,-0.02 0.112,-0.027l0.002,-0.001l18.751,-3.84c0.081,-0.082 0.172,-0.155 0.269,-0.216c0.09,-0.056 0.185,-0.102 0.285,-0.138l0.001,0l0.001,0l0.01,-0.004l0.017,-0.006l0.002,0l0.002,-0.001c0.028,-0.009 0.056,-0.018 0.084,-0.025l0.006,-0.002l0,0l0.001,0c0.046,-0.012 0.075,-0.018 0.105,-0.023c0.027,-0.005 0.055,-0.009 0.082,-0.013c0.006,-0.001 0.012,-0.001 0.018,-0.002l0.004,-0.001l18.964,-2.086c0.062,-0.008 0.087,-0.007 0.16,-0.01l0.043,0.001l0.024,0l0.012,0.001l0.015,0c0.028,0.002 0.049,0.004 0.068,0.006l0.011,0l0.005,0.001c0.029,0.003 0.056,0.006 0.101,0.015c0.006,0.001 0.012,0.002 0.018,0.003c0.085,0.017 0.169,0.041 0.25,0.073l0.002,0l15.454,6.172l0,0.001c0.029,0.011 0.057,0.023 0.085,0.036l0.003,0.001c0.024,0.011 0.048,0.023 0.086,0.044c0.14,0.077 0.268,0.178 0.376,0.297c0.087,0.094 0.161,0.201 0.22,0.315c0.017,0.034 0.034,0.069 0.048,0.104c0.019,0.043 0.035,0.087 0.049,0.132c0.033,0.106 0.054,0.216 0.062,0.327c0.003,0.037 0.003,0.074 0.005,0.111l0,21.239l0,0.001l0,29.006l0,0l0,31.07l0,0.001l0,39.018l-0.001,0.011c0,0.031 -0.001,0.062 -0.004,0.093c0,0.013 -0.001,0.026 -0.002,0.039c-0.007,0.068 -0.018,0.135 -0.035,0.201l0,0.002l0,0.001l-0.002,0.008l-0.003,0.012l-0.002,0.007l-0.002,0.008l-0.002,0.008l-0.002,0.005l-0.002,0.008l-0.006,0.019l0,0.002l0,0.001c-0.012,0.039 -0.026,0.078 -0.041,0.116c-0.015,0.039 -0.032,0.077 -0.051,0.114l-0.001,0.003l-0.002,0.003l-0.007,0.014l-0.005,0.01l-0.003,0.004l-0.002,0.005l-0.004,0.006l-0.004,0.008l-0.003,0.005l-0.003,0.006l-0.004,0.007l-0.003,0.006l-0.003,0.005l-0.004,0.006l-0.004,0.008l-0.004,0.006l-0.002,0.003l-0.004,0.006l-0.006,0.01l-0.003,0.005l-0.001,0.002l-0.003,0.005l-0.008,0.013l-0.003,0.004l0,0l-0.002,0.003c-0.029,0.044 -0.06,0.086 -0.094,0.126l0,0.001l-0.001,0.001l-0.005,0.006l-0.01,0.012l-0.002,0.002l-0.001,0.001l-0.006,0.007l-0.008,0.009l-0.002,0.003l-0.003,0.002l-0.006,0.008l-0.007,0.007l-0.002,0.003l-0.004,0.004l-0.007,0.008l-0.005,0.005l-0.003,0.003l-0.005,0.005l-0.008,0.008l-0.003,0.004l-0.003,0.002l-0.004,0.004l-0.01,0.01l-0.008,0.008l-0.004,0.003l-0.003,0.003l-0.007,0.007l-0.015,0.014l-0.001,0.001l0,0c-0.067,0.061 -0.393,0.272 -0.216,0.163c0.178,-0.11 -0.377,0.18 -0.584,0.207c-0.009,0.001 -0.018,0.002 -0.027,0.003c-0.042,0.005 -0.105,0.008 -0.127,0.009l-0.002,0l-42.994,-0.126l-0.012,-0.001l-0.009,0l-0.012,0.001l-32.519,0l-0.001,0l-51.005,0l-0.001,0Zm61.483,-33.525l-1.891,-2.984c-2.264,11.191 -4.527,22.382 -6.791,33.574l28.058,0l-1.387,-2.19l-17.989,-28.4Zm-77.946,30.59l14.953,0l-1.005,-35.413l-13.948,35.413Zm43.157,0l21.547,0l-18.98,-28.046l-2.567,28.046Zm-0.41,-27.717l-17.965,21.512l-5.181,6.205l20.609,0l2.537,-27.717Zm80.484,10.463c-6.377,5.735 -12.737,11.472 -19.093,17.162l36.066,0.183l-16.973,-17.345Zm-44.997,-18.367l21.176,33.431l7.666,-29.98l-2.026,-0.242l-26.816,-3.209Zm-20.046,2.555l-11.056,1.863l19.593,28.951l6.754,-33.391l-15.291,2.577Zm-40.368,30.619l4.709,-5.639l19.656,-23.539l-1.829,-0.688l-23.636,-8.886l1.1,38.752Zm84.706,-0.083c6.231,-5.456 12.433,-11.091 18.659,-16.741l-11.484,-11.319l-7.175,28.06Zm39.351,-31.382c-1.572,1.316 -3.074,2.721 -4.61,4.088c-3.959,3.524 -7.908,7.062 -11.849,10.604l16.459,16.223l0,-30.915Zm-142.666,27.332l14.279,-36.354l-5.943,-5.662l-8.022,-7.643l-0.314,49.659Zm112.913,-25.744l11.238,11.077c5.243,-4.755 10.506,-9.508 15.818,-14.16c0.025,-0.022 0.05,-0.044 0.075,-0.066l-27.131,3.149Zm-54.877,-26.052l-7.566,-9.753l-3.393,34.091l11.412,-1.923l14.977,-2.523l-15.43,-19.892Zm-29.361,6.096l-9.855,8.438l23.358,8.782l1.977,0.743l3.396,-34.127l-18.876,16.164Zm83.456,17.092l28.991,-3.365l-18.198,-19.99l-10.793,23.355Zm-28.52,-20.034l-5.519,16.534l28.096,3.361l0.899,0.108l-14.89,-28.005l-3.633,-6.835l-4.953,14.837Zm25.998,18.494l10.911,-23.611l-29.166,-10.725l18.255,34.336Zm-30.364,-35.146l-26.98,1.271l8.09,10.428l15.252,19.661l5.22,-15.637l5.357,-16.049l-6.939,0.326Zm59.274,6.832l-13.404,4.545l17.551,19.28l0,-25.231l-4.147,1.406Zm-120.694,-4.472l-5.544,3.342l-11.11,6.696l9.19,8.754l4.529,4.315l2.935,-23.107Zm0.09,22.583l8.851,-7.579l18.698,-16.011l-24.51,-0.33l-3.039,23.92Zm-17.681,-15.407l10.531,-6.348l6.189,-3.731l-13.795,-9.48l-2.925,-2.011l0,21.57Zm91.459,-11.728l29.485,10.842l1.815,-29.015l-31.3,18.173Zm34.149,-16.709l-1.721,27.515l13.455,-4.562l4.183,-1.418l-15.917,-21.535Zm16.824,-5.048l-15.381,2.062l15.381,20.811l0,-22.873Zm-114.764,10.841l-5.837,11.211l23.965,0.322l-9.554,-10.58l-5.754,-6.371l-2.82,5.418Zm37.659,-4.559l-12.981,15.984l25.562,-1.203l7.793,-0.367l-11.913,-23.87l-0.297,-0.596l-8.164,10.052Zm-63.092,3.608l2.353,1.617l14.305,9.831l6.171,-11.853l2.385,-4.581l-25.214,4.986Zm30.317,-6.562l5.868,6.499l9.664,10.701l3.346,-26.523l-18.878,9.323Zm21.953,-10.245l-3.266,25.891l11.809,-14.542l7.882,-9.706l-16.425,-1.643Zm34.763,5.84l-12.744,-3.188l11.571,23.183l3.13,-5.591l6.832,-12.205l-8.789,-2.199Zm4.518,15.838l-1.866,3.334l10.577,-6.141l16.731,-9.714l-18.108,-0.58l-7.334,13.101Zm11.997,-15.889l17.577,0.563l0.012,-0.035l4.213,-12.234l-21.802,11.706Zm20.774,0.294l14.274,-1.913l-4.648,-4.824l-5.383,-5.584l-4.243,12.321Zm-49.943,-6.435l13.367,3.345l7.664,1.917l-1.363,-2.926l-7.111,-15.269l-12.557,12.933Zm26.251,4.376l24.202,-12.994l-16.774,-8.833l-7.428,21.827Zm-11.148,-18.795l7.226,15.516l1.088,2.337l6.812,-20.95l-15.126,3.097Zm46.579,12.08l4.136,4.292l0,-15.202l-1.588,0.813l-8.222,4.21l5.674,5.887Zm2.031,-13.129l-10.388,-4.055c0.461,2.888 0.923,5.777 1.385,8.665l8.182,-4.19l0.821,-0.42Zm-26.295,-3.331l14.249,7.503l-1.425,-8.914l-12.824,1.411Z" style="fill:url(#_Radial4);"/><path d="M117.819,80.831c-1.109,-0.745 -2.185,-1.591 -3.214,-2.538c-0.799,-0.736 -1.54,-1.506 -2.222,-2.303c-5.969,-0.971 -12.837,-4.438 -18.898,-10.019c-11.182,-10.297 -15.415,-23.92 -9.445,-30.402c2.224,-2.415 5.552,-3.501 9.432,-3.379c5.95,-5.462 19.945,-1.314 31.748,9.554c4.578,4.216 8.176,8.845 10.576,13.303c0.039,0.035 0.078,0.071 0.116,0.107c8.368,7.705 10.387,19.144 4.507,25.529c-0.413,0.449 -0.855,0.861 -1.321,1.237l9.001,3.456l0.944,0.598l0.634,0.913l0.223,1.083l0,113.105c-0.07,0.35 -0.073,0.721 -0.21,1.051c-0.279,0.674 -0.815,1.214 -1.494,1.503c-0.333,0.142 -0.709,0.153 -1.063,0.229l-41.821,0.908l-97.018,0l-1.067,-0.206c-0.304,-0.196 -0.651,-0.338 -0.91,-0.587c-0.714,-0.687 -0.649,-1.022 -0.851,-1.928l-0.744,-58.084l-0.119,-25.599l0.166,-0.938c0.416,-0.722 -0.026,-1.005 0.731,-1.451c0.277,-0.163 0.602,-0.228 0.904,-0.342l4.195,-0.816c3.087,-6.578 10.346,-12.189 19.631,-14.315c7.532,-1.725 14.861,-0.804 20.372,2.049c0.759,-0.3 3.224,-2.589 8.111,-3.408c3.608,-0.605 8.372,0.417 8.372,0.417c-2.085,-6.197 -0.842,-13.953 3.897,-20.377c7.088,-9.61 19.333,-12.626 27.326,-6.73c0.037,0.027 0.074,0.055 0.111,0.082c4.714,0.649 9.567,2.575 13.941,5.801c1.161,0.857 2.245,1.773 3.248,2.737l2.211,-0.24Z" style="fill:url(#_Linear5);"/></g></g><g><path d="M33.964,98.177c-0.678,0.293 -1.384,0.551 -2.117,0.771c-7.671,2.303 -15.299,-0.491 -17.024,-6.235c-1.724,-5.744 3.104,-12.278 10.775,-14.581c0.035,-0.01 0.071,-0.021 0.107,-0.031c2.898,-2.064 6.605,-3.875 10.803,-5.135c10.821,-3.248 20.936,-1.647 22.992,3.542c2.484,1.086 4.247,2.76 4.899,4.932c1.75,5.832 -5.152,13.065 -15.404,16.142c-5.557,1.669 -10.965,1.776 -15.031,0.595Z" style="fill:#005893;"/><path d="M25.547,76.343c-0.218,0.329 -0.468,0.641 -0.749,0.932c-2.945,3.048 -8.263,2.695 -11.868,-0.788c-3.604,-3.483 -4.14,-8.786 -1.195,-11.834c0.014,-0.014 0.027,-0.028 0.041,-0.042c0.552,-1.946 1.647,-3.884 3.259,-5.551c4.154,-4.3 10.217,-5.232 13.735,-2.184c1.815,0.232 3.526,0.998 4.89,2.315c3.659,3.536 3.435,9.714 -0.501,13.787c-2.134,2.208 -4.923,3.348 -7.612,3.365Z" style="fill:#005893;"/><path d="M41.313,45.656c-6.417,5.501 -14.31,7.055 -19.183,3.428c-2.951,0.017 -5.733,-0.87 -7.947,-2.743c-5.942,-5.026 -5.559,-15.264 0.856,-22.847c3.477,-4.111 8.017,-6.603 12.392,-7.224c0.356,-0.59 0.763,-1.159 1.221,-1.7c4.8,-5.675 13.449,-6.262 19.303,-1.31c5.853,4.951 6.709,13.578 1.909,19.252c-0.022,0.026 -0.044,0.053 -0.067,0.079c-0.904,3.331 -2.691,6.767 -5.317,9.872c-0.625,0.739 -1.277,1.434 -1.949,2.083c2.528,-2.039 5.76,-3.165 9.203,-2.932c0.034,0.002 0.069,0.004 0.103,0.007c3.218,-1.247 7.045,-1.844 11.103,-1.57c10.459,0.707 18.62,6.951 18.581,14.073c1.763,2.367 2.698,5.133 2.503,8.026c-0.525,7.765 -8.997,13.526 -18.907,12.856c-5.372,-0.364 -10.07,-2.542 -13.164,-5.698c-0.686,0.063 -1.385,0.073 -2.093,0.025c-7.416,-0.501 -13.016,-7.119 -12.498,-14.768c0.236,-3.498 1.711,-6.61 3.951,-8.909Z" style="fill:#005893;"/><circle cx="64.526" cy="29.137" r="10.576" style="fill:#005893;"/></g><path d="M22.272,205.362l-18.057,-0.96c-0.016,0 -0.032,0 -0.047,-0.001c-0.03,-0.001 -0.059,-0.003 -0.088,-0.005c-0.007,-0.001 -0.014,-0.002 -0.021,-0.002c-0.155,-0.017 -0.307,-0.058 -0.449,-0.122c-0.078,-0.035 -0.152,-0.077 -0.221,-0.125l-0.003,-0.002l-0.004,-0.003l-0.009,-0.005l-0.005,-0.005c-0.07,-0.049 -0.136,-0.104 -0.196,-0.165c-0.087,-0.088 -0.163,-0.186 -0.225,-0.293c-0.013,-0.023 -0.026,-0.045 -0.038,-0.069l-0.001,-0.002l-0.003,-0.006l-0.007,-0.015l-0.003,-0.005l-0.002,-0.004l-0.007,-0.014l-0.003,-0.008l-0.002,-0.003l-0.002,-0.006l-0.009,-0.019l-0.002,-0.004l0,-0.001l-0.003,-0.008c-0.017,-0.039 -0.032,-0.079 -0.045,-0.12l-0.001,-0.001l0,-0.002l-0.005,-0.013l-0.004,-0.016l-0.001,-0.002l-0.001,-0.002l-0.002,-0.008l-0.006,-0.021l-0.001,-0.003l0,0c-0.006,-0.022 -0.011,-0.043 -0.016,-0.065l-0.001,-0.002l-0.001,-0.007l-0.003,-0.016l-0.002,-0.006l-0.001,-0.005l-0.001,-0.007l-0.002,-0.01l-0.002,-0.01l-0.001,-0.007l-0.001,-0.006l-0.001,-0.006l-0.003,-0.015l-0.001,-0.008l0,-0.002c-0.005,-0.03 -0.008,-0.061 -0.011,-0.091c-0.002,-0.03 -0.004,-0.061 -0.005,-0.091l0,0l-0.428,-60.248l0,-0.004l0,-0.014l0,-0.007l-0.001,-0.008l0,-26.957l0.001,-0.017c0,-0.019 0.001,-0.038 0.002,-0.056c0,-0.017 0.001,-0.033 0.002,-0.05c0.011,-0.122 0.036,-0.243 0.076,-0.359c0.027,-0.075 0.059,-0.147 0.097,-0.217c0.036,-0.068 0.078,-0.133 0.125,-0.194c0.081,-0.105 0.176,-0.199 0.281,-0.279c0.095,-0.071 0.198,-0.131 0.306,-0.177l0.001,0l0,-0.001l0.008,-0.003l0.007,-0.003l0.005,-0.002l0.015,-0.006l0.004,-0.001l0,-0.001l0.02,-0.007l0.009,-0.003l0.001,-0.001l0.002,-0.001c0.016,-0.006 0.032,-0.011 0.048,-0.016l0.012,-0.004l0.001,-0.001l0.001,0c0.052,-0.017 0.105,-0.03 0.159,-0.041l0,0l0.005,-0.001l0,0l0,0l31.434,-6.216l22.892,-11.304l0.004,-0.002c0.039,-0.02 0.08,-0.037 0.121,-0.053c0.031,-0.013 0.062,-0.023 0.107,-0.037l0.003,0l0.011,-0.003l0.01,-0.003l0.002,-0.001c0.009,-0.003 0.019,-0.005 0.028,-0.007l0.003,-0.001l0.008,-0.002l0.01,-0.003l0.009,-0.002l0.007,-0.001l0.005,-0.001l0.004,-0.001l0.02,-0.005l0.005,-0.001l0.005,-0.001l0.019,-0.003l0.004,-0.001l0.005,-0.001l0.007,-0.001l0.008,-0.002l0.012,-0.002l0.007,-0.001l0.003,0c0.01,-0.002 0.02,-0.003 0.029,-0.004l0.002,-0.001l0.006,0l0.015,-0.002l0.008,-0.001l0.005,-0.001l0.005,0l0.007,-0.001l0.018,-0.002l0.005,0l0.001,0l0.001,0c0.045,-0.004 0.089,-0.004 0.134,-0.005l0,0l0.001,0l0.027,0.001l0.105,0.006l19.854,1.986l15.321,-15.781l0.012,-0.012c0.018,-0.018 0.035,-0.035 0.053,-0.051c0.008,-0.008 0.016,-0.015 0.025,-0.022c0.019,-0.017 0.039,-0.033 0.059,-0.049l0,0l0,0l0.012,-0.01l0.012,-0.008l0.006,-0.005l0.002,-0.001l0.005,-0.004l0.005,-0.004l0.003,-0.002l0.011,-0.008l0.006,-0.004l0.009,-0.006l0.008,-0.006l0.003,-0.002l0.006,-0.004l0.006,-0.004l0.004,-0.002l0.007,-0.005l0.008,-0.006l0.004,-0.002c0.006,-0.004 0.013,-0.008 0.019,-0.012l0.004,-0.002c0.018,-0.011 0.036,-0.022 0.054,-0.032l0.001,0l0,0l0.011,-0.006l0.007,-0.004l0.001,-0.001l0.002,-0.001l0.008,-0.003l0.007,-0.004l0.003,-0.002l0.003,-0.001l0.004,-0.002l0.008,-0.004l0.006,-0.003l0.002,-0.001l0.001,-0.001l0.007,-0.003c0.037,-0.018 0.075,-0.035 0.114,-0.049c0.051,-0.02 0.084,-0.031 0.117,-0.04c0.037,-0.01 0.075,-0.02 0.112,-0.027l0.002,-0.001l18.751,-3.84c0.081,-0.082 0.172,-0.155 0.269,-0.216c0.09,-0.056 0.185,-0.102 0.285,-0.138l0.001,0l0.001,0l0.01,-0.004l0.017,-0.006l0.002,0l0.002,-0.001c0.028,-0.009 0.056,-0.018 0.084,-0.025l0.006,-0.002l0,0l0.001,0c0.046,-0.012 0.075,-0.018 0.105,-0.023c0.027,-0.005 0.055,-0.009 0.082,-0.013c0.006,-0.001 0.012,-0.001 0.018,-0.002l0.004,-0.001l18.964,-2.086c0.062,-0.008 0.087,-0.007 0.16,-0.01l0.043,0.001l0.024,0l0.012,0.001l0.015,0c0.028,0.002 0.049,0.004 0.068,0.006l0.011,0l0.005,0.001c0.029,0.003 0.056,0.006 0.101,0.015c0.006,0.001 0.012,0.002 0.018,0.003c0.085,0.017 0.169,0.041 0.25,0.073l0.002,0l15.454,6.172l0,0.001c0.029,0.011 0.057,0.023 0.085,0.036l0.003,0.001c0.024,0.011 0.048,0.023 0.086,0.044c0.14,0.077 0.268,0.178 0.376,0.297c0.087,0.094 0.161,0.201 0.22,0.315c0.017,0.034 0.034,0.069 0.048,0.104c0.019,0.043 0.035,0.087 0.049,0.132c0.033,0.106 0.054,0.216 0.062,0.327c0.003,0.037 0.003,0.074 0.005,0.111l0,21.239l0,0.001l0,29.006l0,0l0,31.07l0,0.001l0,39.018l-0.001,0.011c0,0.031 -0.001,0.062 -0.004,0.093c0,0.013 -0.001,0.026 -0.002,0.039c-0.007,0.068 -0.018,0.135 -0.035,0.201l0,0.002l0,0.001l-0.002,0.008l-0.003,0.012l-0.002,0.007l-0.002,0.008l-0.002,0.008l-0.002,0.005l-0.002,0.008l-0.006,0.019l0,0.002l0,0.001c-0.012,0.039 -0.026,0.078 -0.041,0.116c-0.015,0.039 -0.032,0.077 -0.051,0.114l-0.001,0.003l-0.002,0.003l-0.007,0.014l-0.005,0.01l-0.003,0.004l-0.002,0.005l-0.004,0.006l-0.004,0.008l-0.003,0.005l-0.003,0.006l-0.004,0.007l-0.003,0.006l-0.003,0.005l-0.004,0.006l-0.004,0.008l-0.004,0.006l-0.002,0.003l-0.004,0.006l-0.006,0.01l-0.003,0.005l-0.001,0.002l-0.003,0.005l-0.008,0.013l-0.003,0.004l0,0l-0.002,0.003c-0.029,0.044 -0.06,0.086 -0.094,0.126l0,0.001l-0.001,0.001l-0.005,0.006l-0.01,0.012l-0.002,0.002l-0.001,0.001l-0.006,0.007l-0.008,0.009l-0.002,0.003l-0.003,0.002l-0.006,0.008l-0.007,0.007l-0.002,0.003l-0.004,0.004l-0.007,0.008l-0.005,0.005l-0.003,0.003l-0.005,0.005l-0.008,0.008l-0.003,0.004l-0.003,0.002l-0.004,0.004l-0.01,0.01l-0.008,0.008l-0.004,0.003l-0.003,0.003l-0.007,0.007l-0.015,0.014l-0.001,0.001l0,0c-0.067,0.061 -0.393,0.272 -0.216,0.163c0.178,-0.11 -0.377,0.18 -0.584,0.207c-0.009,0.001 -0.018,0.002 -0.027,0.003c-0.042,0.005 -0.105,0.008 -0.127,0.009l-0.002,0l-42.994,-0.126l-0.012,-0.001l-0.009,0l-0.012,0.001l-32.519,0l-0.001,0l-51.005,0l-0.001,0Zm61.483,-33.525l-1.891,-2.984c-2.264,11.191 -4.527,22.382 -6.791,33.574l28.058,0l-1.387,-2.19l-17.989,-28.4Zm-77.946,30.59l14.953,0l-1.005,-35.413l-13.948,35.413Zm43.157,0l21.547,0l-18.98,-28.046l-2.567,28.046Zm-0.41,-27.717l-17.965,21.512l-5.181,6.205l20.609,0l2.537,-27.717Zm80.484,10.463c-6.377,5.735 -12.737,11.472 -19.093,17.162l36.066,0.183l-16.973,-17.345Zm-44.997,-18.367l21.176,33.431l7.666,-29.98l-2.026,-0.242l-26.816,-3.209Zm-20.046,2.555l-11.056,1.863l19.593,28.951l6.754,-33.391l-15.291,2.577Zm-40.368,30.619l4.709,-5.639l19.656,-23.539l-1.829,-0.688l-23.636,-8.886l1.1,38.752Zm84.706,-0.083c6.231,-5.456 12.433,-11.091 18.659,-16.741l-11.484,-11.319l-7.175,28.06Zm39.351,-31.382c-1.572,1.316 -3.074,2.721 -4.61,4.088c-3.959,3.524 -7.908,7.062 -11.849,10.604l16.459,16.223l0,-30.915Zm-142.666,27.332l14.279,-36.354l-5.943,-5.662l-8.022,-7.643l-0.314,49.659Zm112.913,-25.744l11.238,11.077c5.243,-4.755 10.506,-9.508 15.818,-14.16c0.025,-0.022 0.05,-0.044 0.075,-0.066l-27.131,3.149Zm-54.877,-26.052l-7.566,-9.753l-3.393,34.091l11.412,-1.923l14.977,-2.523l-15.43,-19.892Zm-29.361,6.096l-9.855,8.438l23.358,8.782l1.977,0.743l3.396,-34.127l-18.876,16.164Zm83.456,17.092l28.991,-3.365l-18.198,-19.99l-10.793,23.355Zm-28.52,-20.034l-5.519,16.534l28.096,3.361l0.899,0.108l-14.89,-28.005l-3.633,-6.835l-4.953,14.837Zm25.998,18.494l10.911,-23.611l-29.166,-10.725l18.255,34.336Zm-30.364,-35.146l-26.98,1.271l8.09,10.428l15.252,19.661l5.22,-15.637l5.357,-16.049l-6.939,0.326Zm59.274,6.832l-13.404,4.545l17.551,19.28l0,-25.231l-4.147,1.406Zm-120.694,-4.472l-5.544,3.342l-11.11,6.696l9.19,8.754l4.529,4.315l2.935,-23.107Zm0.09,22.583l8.851,-7.579l18.698,-16.011l-24.51,-0.33l-3.039,23.92Zm-17.681,-15.407l10.531,-6.348l6.189,-3.731l-13.795,-9.48l-2.925,-2.011l0,21.57Zm91.459,-11.728l29.485,10.842l1.815,-29.015l-31.3,18.173Zm34.149,-16.709l-1.721,27.515l13.455,-4.562l4.183,-1.418l-15.917,-21.535Zm16.824,-5.048l-15.381,2.062l15.381,20.811l0,-22.873Zm-114.764,10.841l-5.837,11.211l23.965,0.322l-9.554,-10.58l-5.754,-6.371l-2.82,5.418Zm37.659,-4.559l-12.981,15.984l25.562,-1.203l7.793,-0.367l-11.913,-23.87l-0.297,-0.596l-8.164,10.052Zm-63.092,3.608l2.353,1.617l14.305,9.831l6.171,-11.853l2.385,-4.581l-25.214,4.986Zm30.317,-6.562l5.868,6.499l9.664,10.701l3.346,-26.523l-18.878,9.323Zm21.953,-10.245l-3.266,25.891l11.809,-14.542l7.882,-9.706l-16.425,-1.643Zm34.763,5.84l-12.744,-3.188l11.571,23.183l3.13,-5.591l6.832,-12.205l-8.789,-2.199Zm4.518,15.838l-1.866,3.334l10.577,-6.141l16.731,-9.714l-18.108,-0.58l-7.334,13.101Zm11.997,-15.889l17.577,0.563l0.012,-0.035l4.213,-12.234l-21.802,11.706Zm20.774,0.294l14.274,-1.913l-4.648,-4.824l-5.383,-5.584l-4.243,12.321Zm-49.943,-6.435l13.367,3.345l7.664,1.917l-1.363,-2.926l-7.111,-15.269l-12.557,12.933Zm26.251,4.376l24.202,-12.994l-16.774,-8.833l-7.428,21.827Zm-11.148,-18.795l7.226,15.516l1.088,2.337l6.812,-20.95l-15.126,3.097Zm46.579,12.08l4.136,4.292l0,-15.202l-1.588,0.813l-8.222,4.21l5.674,5.887Zm2.031,-13.129l-10.388,-4.055c0.461,2.888 0.923,5.777 1.385,8.665l8.182,-4.19l0.821,-0.42Zm-26.295,-3.331l14.249,7.503l-1.425,-8.914l-12.824,1.411Z" style="fill:url(#_Linear6);"/></g><g><path d="M14.927,240.485c-4.299,0 -7.621,-1.204 -9.965,-3.613c-2.343,-2.408 -3.515,-5.801 -3.515,-10.178c0,-4.377 1.172,-7.769 3.515,-10.178c2.344,-2.408 5.666,-3.613 9.965,-3.613c1.657,0 3.218,0.169 4.681,0.505c1.463,0.337 2.687,0.829 3.671,1.477c0.207,0.129 0.311,0.272 0.311,0.427c0,0.104 -0.039,0.233 -0.117,0.388l-0.816,1.36c-0.103,0.207 -0.22,0.311 -0.349,0.311c-0.13,0 -0.259,-0.052 -0.389,-0.156c-0.777,-0.466 -1.735,-0.848 -2.875,-1.146c-1.139,-0.297 -2.408,-0.446 -3.807,-0.446c-3.185,0 -5.704,0.913 -7.555,2.738c-1.852,1.826 -2.778,4.604 -2.778,8.333c0,3.73 0.919,6.501 2.758,8.314c1.839,1.812 4.312,2.719 7.42,2.719c1.217,0 2.409,-0.104 3.574,-0.311c1.165,-0.207 2.124,-0.492 2.875,-0.855l0,-8.429l-6.022,0c-0.414,0 -0.705,-0.091 -0.874,-0.272c-0.168,-0.182 -0.252,-0.467 -0.252,-0.855l0,-0.66c0,-0.389 0.084,-0.661 0.252,-0.816c0.169,-0.156 0.46,-0.233 0.874,-0.233l8.158,0c0.441,0 0.758,0.103 0.952,0.31c0.194,0.208 0.291,0.531 0.291,0.972l0,10.644c0,0.336 -0.025,0.583 -0.077,0.738c-0.052,0.155 -0.182,0.285 -0.389,0.388c-2.538,1.425 -5.71,2.137 -9.517,2.137Z" style="fill:#005860;fill-rule:nonzero;"/><path d="M30.543,239.902c-0.803,0 -1.204,-0.388 -1.204,-1.165l0,-16.51c0,-0.363 0.058,-0.615 0.175,-0.758c0.116,-0.142 0.356,-0.213 0.718,-0.213l1.282,0c0.285,0 0.486,0.064 0.603,0.194c0.116,0.129 0.187,0.337 0.213,0.621l0.039,1.554c0.699,-0.932 1.573,-1.657 2.622,-2.175c1.049,-0.518 2.26,-0.777 3.632,-0.777c0.959,0 1.658,0.142 2.098,0.427c0.233,0.156 0.311,0.35 0.233,0.583l-0.427,1.709c-0.078,0.311 -0.272,0.402 -0.583,0.272c-0.518,-0.233 -1.165,-0.35 -1.942,-0.35c-1.476,0 -2.7,0.415 -3.671,1.244c-0.971,0.828 -1.457,1.981 -1.457,3.457l0,10.722c0,0.388 -0.091,0.68 -0.272,0.874c-0.181,0.194 -0.479,0.291 -0.893,0.291l-1.166,0Z" style="fill:#005860;fill-rule:nonzero;"/><path d="M52.337,240.485c-2.59,0 -4.649,-0.758 -6.177,-2.273c-1.528,-1.515 -2.292,-3.671 -2.292,-6.468c0,-2.201 0.46,-4.137 1.379,-5.807c0.919,-1.671 2.247,-2.966 3.982,-3.885c1.735,-0.919 3.768,-1.379 6.099,-1.379c1.631,0 3.133,0.214 4.506,0.641c1.373,0.427 2.525,0.965 3.457,1.612l0,16.005c0,0.337 -0.077,0.583 -0.233,0.738c-0.155,0.156 -0.414,0.233 -0.777,0.233l-1.204,0c-0.285,0 -0.492,-0.064 -0.621,-0.194c-0.13,-0.129 -0.221,-0.337 -0.272,-0.622l-0.195,-1.709c-0.828,1.088 -1.864,1.878 -3.107,2.37c-1.243,0.492 -2.758,0.738 -4.545,0.738Zm1.32,-2.68c1.036,0 2.033,-0.208 2.992,-0.622c0.958,-0.414 1.735,-1.017 2.33,-1.806c0.596,-0.79 0.894,-1.703 0.894,-2.739l0,-8.352c-1.295,-0.648 -2.836,-0.972 -4.623,-0.972c-2.383,0 -4.299,0.732 -5.749,2.195c-1.451,1.464 -2.176,3.477 -2.176,6.041c0,2.15 0.525,3.729 1.574,4.739c1.048,1.011 2.635,1.516 4.758,1.516Z" style="fill:#005860;fill-rule:nonzero;"/><path d="M69.701,239.902c-0.803,0 -1.204,-0.388 -1.204,-1.165l0,-16.51c0,-0.363 0.058,-0.615 0.175,-0.758c0.116,-0.142 0.356,-0.213 0.718,-0.213l1.282,0c0.57,0 0.855,0.272 0.855,0.815l0,1.787c1.839,-2.123 4.506,-3.185 8.003,-3.185c2.123,0 3.813,0.55 5.069,1.651c1.256,1.101 1.884,2.765 1.884,4.992l0,11.421c0,0.388 -0.09,0.68 -0.272,0.874c-0.181,0.194 -0.479,0.291 -0.893,0.291l-1.166,0c-0.802,0 -1.204,-0.388 -1.204,-1.165l0,-11.227c0,-1.528 -0.356,-2.603 -1.068,-3.224c-0.712,-0.622 -1.858,-0.933 -3.438,-0.933c-1.062,0 -2.091,0.201 -3.088,0.602c-0.998,0.402 -1.8,0.965 -2.409,1.69c-0.609,0.725 -0.913,1.554 -0.913,2.487l0,10.605c0,0.388 -0.091,0.68 -0.272,0.874c-0.181,0.194 -0.479,0.291 -0.893,0.291l-1.166,0Z" style="fill:#005860;fill-rule:nonzero;"/><path d="M110.891,239.902c-0.777,0 -1.165,-0.388 -1.165,-1.165l0,-24.085c0,-0.777 0.388,-1.166 1.165,-1.166l16.161,0c0.414,0 0.706,0.078 0.874,0.233c0.168,0.156 0.252,0.428 0.252,0.816l0,0.66c0,0.415 -0.084,0.706 -0.252,0.874c-0.168,0.169 -0.46,0.253 -0.874,0.253l-13.791,0l0,8.935l10.372,0c0.415,0 0.712,0.084 0.894,0.252c0.181,0.169 0.272,0.447 0.272,0.836l0,0.621c0,0.389 -0.091,0.673 -0.272,0.855c-0.182,0.181 -0.479,0.272 -0.894,0.272l-10.372,0l0,8.973l13.791,0c0.414,0 0.706,0.085 0.874,0.253c0.168,0.168 0.252,0.46 0.252,0.874l0,0.66c0,0.389 -0.084,0.661 -0.252,0.816c-0.168,0.156 -0.46,0.233 -0.874,0.233l-16.161,0Z" style="fill:#005eb8;fill-rule:nonzero;"/><path d="M131.468,239.902c-0.777,0 -1.165,-0.388 -1.165,-1.165l0,-24.085c0,-0.777 0.388,-1.166 1.165,-1.166l7.381,0c4.325,0 7.647,1.043 9.965,3.127c2.318,2.085 3.476,5.445 3.476,10.081c0,4.636 -1.158,7.996 -3.476,10.081c-2.318,2.085 -5.64,3.127 -9.965,3.127l-7.381,0Zm7.653,-2.836c3.186,0 5.601,-0.789 7.245,-2.369c1.645,-1.58 2.467,-4.248 2.467,-8.003c0,-3.755 -0.822,-6.423 -2.467,-8.002c-1.644,-1.58 -4.059,-2.37 -7.245,-2.37l-5.283,0l0,20.744l5.283,0Z" style="fill:#005eb8;fill-rule:nonzero;"/></g></g><defs><linearGradient id="_Linear2" x1="0" y1="0" x2="1" y2="0" gradientUnits="userSpaceOnUse" gradientTransform="matrix(136.163,-72.1487,72.1487,136.163,3.89313,193.11)"><stop offset="0" style="stop-color:#004850;stop-opacity:1"/><stop offset="0.45" style="stop-color:#bd9b3c;stop-opacity:1"/><stop offset="1" style="stop-color:#efb137;stop-opacity:1"/></linearGradient><radialGradient id="_Radial4" cx="0" cy="0" r="1" gradientUnits="userSpaceOnUse" gradientTransform="matrix(10.1209,-84.72,125.189,14.9554,137.565,168.771)"><stop offset="0" style="stop-color:#fff;stop-opacity:1"/><stop offset="0.45" style="stop-color:#fff;stop-opacity:0.705882"/><stop offset="1" style="stop-color:#fff;stop-opacity:0"/></radialGradient><linearGradient id="_Linear5" x1="0" y1="0" x2="1" y2="0" gradientUnits="userSpaceOnUse" gradientTransform="matrix(26.9913,77.0187,-77.0187,26.9913,68.4314,66.9247)"><stop offset="0" style="stop-color:#005893;stop-opacity:1"/><stop offset="0.51" style="stop-color:#005893;stop-opacity:0.254902"/><stop offset="1" style="stop-color:#005893;stop-opacity:0"/></linearGradient><linearGradient id="_Linear6" x1="0" y1="0" x2="1" y2="0" gradientUnits="userSpaceOnUse" gradientTransform="matrix(1.21654,-85.1483,85.1483,1.21654,75.0729,202.427)"><stop offset="0" style="stop-color:#fff;stop-opacity:1"/><stop offset="0.51" style="stop-color:#fff;stop-opacity:0.756863"/><stop offset="1" style="stop-color:#fff;stop-opacity:0"/></linearGradient></defs></svg>