<?xml version="1.0" encoding="UTF-8"?>
<!DOCTYPE svg PUBLIC "-//W3C//DTD SVG 1.1//EN" "http://www.w3.org/Graphics/SVG/1.1/DTD/svg11.dtd">
<svg version="1.2" width="131.33mm" height="29.98mm" viewBox="0 0 13133 2998" preserveAspectRatio="xMidYMid" fill-rule="evenodd" stroke-width="28.222" stroke-linejoin="round" xmlns="http://www.w3.org/2000/svg" xmlns:ooo="http://xml.openoffice.org/svg/export" xmlns:xlink="http://www.w3.org/1999/xlink" xmlns:presentation="http://sun.com/xmlns/staroffice/presentation" xmlns:smil="http://www.w3.org/2001/SMIL20/" xmlns:anim="urn:oasis:names:tc:opendocument:xmlns:animation:1.0" xml:space="preserve">
 <defs class="ClipPathGroup">
  <clipPath id="presentation_clip_path" clipPathUnits="userSpaceOnUse">
   <rect x="0" y="0" width="13133" height="2998"/>
  </clipPath>
  <clipPath id="presentation_clip_path_shrink" clipPathUnits="userSpaceOnUse">
   <rect x="13" y="2" width="13107" height="2993"/>
  </clipPath>
 </defs>
 <defs class="TextShapeIndex">
  <g ooo:slide="id1" ooo:id-list="id3"/>
 </defs>
 <defs class="EmbeddedBulletChars">
  <g id="bullet-char-template-57356" transform="scale(0.00048828125,-0.00048828125)">
   <path d="M 580,1141 L 1163,571 580,0 -4,571 580,1141 Z"/>
  </g>
  <g id="bullet-char-template-57354" transform="scale(0.00048828125,-0.00048828125)">
   <path d="M 8,1128 L 1137,1128 1137,0 8,0 8,1128 Z"/>
  </g>
  <g id="bullet-char-template-10146" transform="scale(0.00048828125,-0.00048828125)">
   <path d="M 174,0 L 602,739 174,1481 1456,739 174,0 Z M 1358,739 L 309,1346 659,739 1358,739 Z"/>
  </g>
  <g id="bullet-char-template-10132" transform="scale(0.00048828125,-0.00048828125)">
   <path d="M 2015,739 L 1276,0 717,0 1260,543 174,543 174,936 1260,936 717,1481 1274,1481 2015,739 Z"/>
  </g>
  <g id="bullet-char-template-10007" transform="scale(0.00048828125,-0.00048828125)">
   <path d="M 0,-2 C -7,14 -16,27 -25,37 L 356,567 C 262,823 215,952 215,954 215,979 228,992 255,992 264,992 276,990 289,987 310,991 331,999 354,1012 L 381,999 492,748 772,1049 836,1024 860,1049 C 881,1039 901,1025 922,1006 886,937 835,863 770,784 769,783 710,716 594,584 L 774,223 C 774,196 753,168 711,139 L 727,119 C 717,90 699,76 672,76 641,76 570,178 457,381 L 164,-76 C 142,-110 111,-127 72,-127 30,-127 9,-110 8,-76 1,-67 -2,-52 -2,-32 -2,-23 -1,-13 0,-2 Z"/>
  </g>
  <g id="bullet-char-template-10004" transform="scale(0.00048828125,-0.00048828125)">
   <path d="M 285,-33 C 182,-33 111,30 74,156 52,228 41,333 41,471 41,549 55,616 82,672 116,743 169,778 240,778 293,778 328,747 346,684 L 369,508 C 377,444 397,411 428,410 L 1163,1116 C 1174,1127 1196,1133 1229,1133 1271,1133 1292,1118 1292,1087 L 1292,965 C 1292,929 1282,901 1262,881 L 442,47 C 390,-6 338,-33 285,-33 Z"/>
  </g>
  <g id="bullet-char-template-9679" transform="scale(0.00048828125,-0.00048828125)">
   <path d="M 813,0 C 632,0 489,54 383,161 276,268 223,411 223,592 223,773 276,916 383,1023 489,1130 632,1184 813,1184 992,1184 1136,1130 1245,1023 1353,916 1407,772 1407,592 1407,412 1353,268 1245,161 1136,54 992,0 813,0 Z"/>
  </g>
  <g id="bullet-char-template-8226" transform="scale(0.00048828125,-0.00048828125)">
   <path d="M 346,457 C 273,457 209,483 155,535 101,586 74,649 74,723 74,796 101,859 155,911 209,963 273,989 346,989 419,989 480,963 531,910 582,859 608,796 608,723 608,648 583,586 532,535 482,483 420,457 346,457 Z"/>
  </g>
  <g id="bullet-char-template-8211" transform="scale(0.00048828125,-0.00048828125)">
   <path d="M -4,459 L 1135,459 1135,606 -4,606 -4,459 Z"/>
  </g>
  <g id="bullet-char-template-61548" transform="scale(0.00048828125,-0.00048828125)">
   <path d="M 173,740 C 173,903 231,1043 346,1159 462,1274 601,1332 765,1332 928,1332 1067,1274 1183,1159 1299,1043 1357,903 1357,740 1357,577 1299,437 1183,322 1067,206 928,148 765,148 601,148 462,206 346,322 231,437 173,577 173,740 Z"/>
  </g>
 </defs>
 <g>
  <g id="id2" class="Master_Slide">
   <g id="bg-id2" class="Background"/>
   <g id="bo-id2" class="BackgroundObjects"/>
  </g>
 </g>
 <g class="SlideGroup">
  <g>
   <g id="container-id1">
    <g id="id1" class="Slide" clip-path="url(#presentation_clip_path)">
     <g class="Page">
      <g class="Graphic">
       <g id="id3">
        <rect class="BoundingBox" stroke="none" fill="none" x="0" y="0" width="13133" height="2998"/>
        <path fill="rgb(14,43,88)" stroke="none" d="M 3955,1229 L 3955,1241 3811,1241 3811,1229 C 3841,1229 3857,1221 3857,1165 L 3857,856 3799,856 C 3744,856 3719,871 3716,914 L 3704,914 3704,821 3716,821 C 3721,826 3728,829 3738,832 3747,834 3760,836 3777,836 L 3989,836 C 4025,836 4041,832 4054,821 L 4066,821 4066,914 4058,914 C 4051,880 4037,856 3973,856 L 3911,856 3911,1167 C 3911,1216 3920,1229 3955,1229 Z"/>
        <path fill="rgb(14,43,88)" stroke="none" d="M 4217,1165 C 4217,1214 4229,1229 4264,1229 L 4264,1241 4117,1241 4117,1229 C 4148,1229 4163,1219 4163,1165 L 4163,912 C 4163,864 4153,848 4117,848 L 4117,836 4264,836 4264,848 C 4232,848 4217,861 4217,912 L 4217,1028 4438,1028 4438,912 C 4438,863 4428,848 4393,848 L 4393,836 4538,836 4538,848 C 4503,848 4492,864 4492,912 L 4492,1165 C 4492,1213 4503,1229 4538,1229 L 4538,1241 4393,1241 4393,1229 C 4425,1229 4438,1219 4438,1165 L 4438,1048 4217,1048 4217,1165 Z"/>
        <path fill="rgb(14,43,88)" stroke="none" d="M 4852,1088 C 4844,1053 4838,1049 4796,1049 L 4695,1049 4695,1194 C 4695,1214 4702,1222 4725,1222 L 4796,1222 C 4855,1222 4870,1219 4894,1166 L 4906,1166 4888,1241 4595,1241 4595,1229 C 4627,1229 4641,1220 4641,1166 L 4641,912 C 4641,862 4630,848 4595,848 L 4595,836 4888,836 4888,904 4880,904 C 4871,859 4857,856 4812,856 L 4695,856 4695,1029 4808,1029 C 4836,1029 4847,1024 4852,989 L 4864,989 4864,1088 4852,1088 Z"/>
        <path fill="rgb(14,43,88)" stroke="none" d="M 5316,1251 C 5218,1251 5178,1182 5178,1112 L 5178,912 C 5178,859 5164,848 5132,848 L 5132,836 5279,836 5279,848 C 5245,848 5232,860 5232,912 L 5232,1117 C 5232,1179 5267,1224 5335,1224 5382,1224 5423,1200 5451,1156 L 5451,912 C 5451,866 5441,849 5408,848 L 5408,836 5551,836 5551,848 C 5517,848 5505,863 5505,912 L 5505,1165 C 5505,1218 5520,1229 5551,1229 L 5551,1241 5451,1241 5451,1185 C 5412,1230 5370,1251 5316,1251 Z"/>
        <path fill="rgb(14,43,88)" stroke="none" d="M 5966,1241 L 5680,889 5679,889 5679,1174 C 5679,1214 5695,1229 5732,1229 L 5732,1241 5609,1241 5609,1229 C 5642,1229 5659,1219 5659,1160 L 5659,923 C 5659,878 5647,852 5599,848 L 5599,836 5703,836 5956,1152 5958,1152 5958,914 C 5958,861 5944,848 5908,848 L 5908,836 6031,836 6031,848 C 5991,848 5978,864 5978,912 L 5978,1241 5966,1241 Z"/>
        <path fill="rgb(14,43,88)" stroke="none" d="M 6230,1229 L 6230,1241 6084,1241 6084,1229 C 6117,1229 6130,1217 6130,1165 L 6130,912 C 6130,861 6118,848 6084,848 L 6084,836 6230,836 6230,848 C 6196,848 6184,863 6184,912 L 6184,1165 C 6184,1214 6196,1229 6230,1229 Z"/>
        <path fill="rgb(14,43,88)" stroke="none" d="M 6462,1247 L 6337,918 C 6317,868 6308,849 6269,848 L 6269,836 6417,836 6417,848 C 6388,848 6373,863 6385,895 L 6484,1157 6579,904 C 6592,870 6585,848 6548,848 L 6548,836 6667,836 6667,848 C 6636,848 6613,872 6593,927 L 6473,1247 6462,1247 Z"/>
        <path fill="rgb(14,43,88)" stroke="none" d="M 6965,1088 C 6956,1053 6950,1049 6908,1049 L 6807,1049 6807,1194 C 6807,1214 6814,1222 6837,1222 L 6908,1222 C 6968,1222 6982,1219 7006,1166 L 7019,1166 7000,1241 6708,1241 6708,1229 C 6740,1229 6754,1220 6754,1166 L 6754,912 C 6754,862 6742,848 6708,848 L 6708,836 7000,836 7000,904 6992,904 C 6983,859 6969,856 6924,856 L 6807,856 6807,1029 6921,1029 C 6948,1029 6959,1024 6965,989 L 6977,989 6977,1088 6965,1088 Z"/>
        <path fill="rgb(14,43,88)" stroke="none" d="M 7176,1037 L 7225,1037 C 7294,1037 7321,990 7321,943 7321,890 7280,851 7218,851 L 7176,851 7176,1037 Z M 7222,1229 L 7222,1241 7076,1241 7076,1229 C 7107,1229 7122,1220 7122,1165 L 7122,911 C 7122,858 7108,848 7076,848 L 7076,836 7242,836 C 7334,836 7377,888 7377,942 7377,987 7354,1024 7294,1042 7370,1091 7395,1224 7462,1229 L 7462,1241 7380,1241 C 7304,1149 7283,1054 7208,1054 L 7176,1054 7176,1165 C 7176,1214 7188,1229 7222,1229 Z"/>
        <path fill="rgb(14,43,88)" stroke="none" d="M 7705,925 C 7699,865 7657,842 7615,842 7573,842 7542,865 7542,902 7542,977 7646,997 7704,1055 7732,1084 7739,1109 7739,1136 7739,1200 7688,1251 7624,1251 7581,1251 7545,1230 7531,1230 7524,1230 7519,1235 7515,1246 L 7504,1246 7504,1136 7515,1136 C 7516,1211 7578,1236 7613,1236 7662,1236 7695,1208 7695,1164 7695,1094 7586,1061 7540,1016 7515,991 7506,962 7506,931 7506,868 7550,826 7616,826 7659,826 7680,842 7695,842 7702,842 7703,840 7706,830 L 7717,830 7717,925 7705,925 Z"/>
        <path fill="rgb(14,43,88)" stroke="none" d="M 7933,1229 L 7933,1241 7787,1241 7787,1229 C 7820,1229 7833,1217 7833,1165 L 7833,912 C 7833,861 7821,848 7787,848 L 7787,836 7933,836 7933,848 C 7899,848 7886,863 7886,912 L 7886,1165 C 7886,1214 7899,1229 7933,1229 Z"/>
        <path fill="rgb(14,43,88)" stroke="none" d="M 8228,1229 L 8228,1241 8084,1241 8084,1229 C 8113,1229 8130,1221 8130,1165 L 8130,856 8071,856 C 8017,856 7992,871 7988,914 L 7977,914 7977,821 7988,821 C 7994,826 8001,829 8010,832 8020,834 8032,836 8049,836 L 8262,836 C 8297,836 8314,832 8326,821 L 8339,821 8339,914 8331,914 C 8323,880 8310,856 8246,856 L 8184,856 8184,1167 C 8184,1216 8193,1229 8228,1229 Z"/>
        <path fill="rgb(14,43,88)" stroke="none" d="M 8627,1229 L 8627,1241 8479,1241 8479,1229 C 8510,1229 8529,1223 8529,1165 L 8529,1038 8442,903 C 8414,859 8402,849 8370,848 L 8370,836 8529,836 8529,848 C 8484,848 8479,863 8495,888 L 8575,1011 8640,909 C 8660,878 8661,848 8627,848 L 8627,836 8738,836 8738,848 C 8707,850 8697,859 8674,894 L 8583,1038 8583,1165 C 8583,1214 8592,1229 8627,1229 Z"/>
        <path fill="rgb(14,43,88)" stroke="none" d="M 8910,1164 C 8910,1203 8929,1229 8958,1229 9005,1229 9044,1162 9044,1084 9044,1050 9024,1021 8996,1021 8951,1021 8910,1088 8910,1164 Z M 8869,1167 C 8869,1083 8941,1001 9015,1001 9053,1001 9086,1038 9086,1081 9086,1145 9030,1249 8942,1249 8899,1249 8869,1215 8869,1167 Z"/>
        <path fill="rgb(14,43,88)" stroke="none" d="M 9219,1028 L 9180,1234 C 9164,1318 9152,1360 9113,1399 9096,1416 9059,1436 9019,1436 8985,1436 8955,1429 8937,1417 L 8947,1367 8959,1367 C 8966,1404 8992,1422 9021,1422 9045,1422 9071,1411 9087,1396 9110,1372 9125,1325 9136,1267 L 9180,1028 9131,1028 9133,1009 9182,1009 9200,923 C 9210,874 9230,804 9320,803 9335,803 9348,805 9368,812 L 9370,803 9384,803 9371,867 9357,867 C 9355,852 9350,817 9312,817 9276,817 9255,845 9243,903 L 9221,1009 9270,1009 9268,1028 9219,1028 Z"/>
        <path fill="rgb(14,43,88)" stroke="none" d="M 9713,1088 C 9705,1053 9699,1049 9657,1049 L 9556,1049 9556,1194 C 9556,1214 9563,1222 9586,1222 L 9657,1222 C 9716,1222 9731,1219 9755,1166 L 9767,1166 9749,1241 9456,1241 9456,1229 C 9488,1229 9502,1220 9502,1166 L 9502,912 C 9502,862 9491,848 9456,848 L 9456,836 9749,836 9749,904 9741,904 C 9732,859 9718,856 9673,856 L 9556,856 9556,1029 9670,1029 C 9697,1029 9708,1024 9713,989 L 9725,989 9725,1088 9713,1088 Z"/>
        <path fill="rgb(14,43,88)" stroke="none" d="M 9922,1151 C 9922,1214 9936,1226 9974,1226 L 10016,1226 C 10116,1226 10176,1156 10176,1046 10176,949 10128,851 9999,851 L 9922,851 9922,1151 Z M 9823,848 L 9823,836 10010,836 C 10165,836 10239,940 10239,1045 10239,1147 10175,1241 10015,1241 L 9823,1241 9823,1229 C 9855,1229 9869,1215 9869,1165 L 9869,912 C 9869,863 9857,848 9823,848 Z"/>
        <path fill="rgb(14,43,88)" stroke="none" d="M 10445,1229 L 10445,1241 10299,1241 10299,1229 C 10332,1229 10345,1217 10345,1165 L 10345,912 C 10345,861 10334,848 10299,848 L 10299,836 10445,836 10445,848 C 10411,848 10399,863 10399,912 L 10399,1165 C 10399,1214 10411,1229 10445,1229 Z"/>
        <path fill="rgb(14,43,88)" stroke="none" d="M 10852,1241 L 10566,889 10565,889 10565,1174 C 10565,1214 10581,1229 10618,1229 L 10618,1241 10494,1241 10494,1229 C 10528,1229 10545,1219 10545,1160 L 10545,923 C 10545,878 10533,852 10485,848 L 10485,836 10589,836 10842,1152 10844,1152 10844,914 C 10844,861 10829,848 10794,848 L 10794,836 10917,836 10917,848 C 10877,848 10864,864 10864,912 L 10864,1241 10852,1241 Z"/>
        <path fill="rgb(14,43,88)" stroke="none" d="M 11075,1158 C 11075,1213 11085,1226 11117,1226 L 11150,1226 C 11191,1226 11230,1198 11230,1139 11230,1079 11185,1039 11113,1039 L 11075,1039 11075,1158 Z M 11117,1024 C 11176,1024 11213,989 11213,938 11213,887 11181,851 11115,851 L 11075,851 11075,1024 11117,1024 Z M 10975,848 L 10975,836 11128,836 C 11226,836 11269,883 11269,935 11269,980 11244,1009 11188,1027 L 11188,1028 C 11250,1041 11293,1088 11293,1142 11293,1203 11239,1241 11162,1241 L 10975,1241 10975,1229 C 11009,1229 11021,1214 11021,1165 L 11021,912 C 11021,861 11009,848 10975,848 Z"/>
        <path fill="rgb(14,43,88)" stroke="none" d="M 11529,1251 C 11431,1251 11391,1182 11391,1112 L 11391,912 C 11391,859 11377,848 11345,848 L 11345,836 11491,836 11491,848 C 11458,848 11445,860 11445,912 L 11445,1117 C 11445,1179 11480,1224 11548,1224 11595,1224 11636,1200 11664,1156 L 11664,912 C 11664,866 11654,849 11621,848 L 11621,836 11764,836 11764,848 C 11730,848 11718,863 11718,912 L 11718,1165 C 11718,1218 11733,1229 11764,1229 L 11764,1241 11664,1241 11664,1185 C 11625,1230 11583,1251 11529,1251 Z"/>
        <path fill="rgb(14,43,88)" stroke="none" d="M 11922,1037 L 11972,1037 C 12040,1037 12067,990 12067,943 12067,890 12027,851 11965,851 L 11922,851 11922,1037 Z M 11968,1229 L 11968,1241 11822,1241 11822,1229 C 11853,1229 11868,1220 11868,1165 L 11868,911 C 11868,858 11855,848 11822,848 L 11822,836 11989,836 C 12080,836 12124,888 12124,942 12124,987 12100,1024 12040,1042 12116,1091 12142,1224 12209,1229 L 12209,1241 12126,1241 C 12050,1149 12029,1054 11955,1054 L 11922,1054 11922,1165 C 11922,1214 11935,1229 11968,1229 Z"/>
        <path fill="rgb(14,43,88)" stroke="none" d="M 12481,1251 C 12302,1251 12243,1144 12243,1050 12243,907 12352,826 12452,826 12509,826 12531,845 12562,845 12575,845 12581,842 12585,832 L 12597,832 12597,951 12586,951 C 12576,874 12507,842 12452,842 12368,842 12305,914 12305,1025 12305,1144 12376,1232 12472,1232 12501,1232 12540,1225 12540,1189 L 12540,1145 C 12540,1096 12529,1078 12496,1078 L 12480,1078 12480,1066 12644,1066 12644,1078 C 12605,1078 12594,1097 12594,1133 L 12594,1241 C 12571,1248 12499,1251 12481,1251 Z"/>
        <path fill="rgb(14,43,88)" stroke="none" d="M 12798,1165 C 12798,1214 12810,1229 12845,1229 L 12845,1241 12698,1241 12698,1229 C 12729,1229 12744,1219 12744,1165 L 12744,912 C 12744,864 12734,848 12698,848 L 12698,836 12845,836 12845,848 C 12813,848 12798,861 12798,912 L 12798,1028 13019,1028 13019,912 C 13019,863 13008,848 12974,848 L 12974,836 13119,836 13119,848 C 13084,848 13073,864 13073,912 L 13073,1165 C 13073,1213 13084,1229 13119,1229 L 13119,1241 12974,1241 12974,1229 C 13006,1229 13019,1219 13019,1165 L 13019,1048 12798,1048 12798,1165 Z"/>
        <path fill="rgb(14,43,88)" stroke="none" d="M 273,1184 L 279,1185 262,1261 256,1260 C 259,1245 257,1235 227,1228 L 63,1191 56,1222 C 50,1251 55,1266 77,1273 L 76,1280 27,1268 28,1262 C 31,1260 34,1257 36,1252 39,1247 41,1241 43,1232 L 68,1119 C 72,1100 72,1091 68,1083 L 69,1077 119,1088 118,1092 C 99,1092 84,1096 77,1130 L 69,1163 234,1200 C 260,1205 268,1202 273,1184 Z"/>
        <path fill="rgb(14,43,88)" stroke="none" d="M 303,983 C 327,995 338,993 346,976 L 352,979 317,1050 311,1047 C 319,1032 317,1022 291,1010 L 167,949 C 144,938 134,939 125,957 L 119,954 154,882 160,885 C 152,901 155,911 180,923 L 236,951 289,843 233,815 C 208,804 199,805 190,822 L 185,819 219,748 225,751 C 217,768 222,778 245,789 L 369,849 C 392,861 403,859 411,842 L 417,845 382,916 377,913 C 384,898 382,888 356,876 L 299,848 246,955 303,983 Z"/>
        <path fill="rgb(14,43,88)" stroke="none" d="M 502,598 C 485,590 481,591 466,609 L 431,650 492,701 C 500,708 506,707 514,698 L 538,668 C 559,644 563,637 549,608 L 553,603 579,637 477,759 472,755 C 483,741 484,732 461,713 L 356,625 C 335,608 325,608 313,622 L 308,618 409,496 438,520 435,523 C 413,511 407,516 391,535 L 351,583 423,644 462,596 C 472,585 474,579 461,564 L 465,559 506,593 502,598 Z"/>
        <path fill="rgb(14,43,88)" stroke="none" d="M 873,413 C 826,439 789,417 770,384 L 717,289 C 703,264 693,262 678,271 L 675,265 744,226 747,232 C 732,241 729,250 742,274 L 797,372 C 814,401 842,413 874,395 896,382 910,360 911,332 L 846,216 C 834,194 824,189 809,197 L 805,192 873,154 876,159 C 860,168 859,179 872,202 L 939,322 C 953,347 963,348 978,340 L 981,345 934,372 919,345 C 913,377 898,398 873,413 Z"/>
        <path fill="rgb(14,43,88)" stroke="none" d="M 1262,260 L 1064,113 1063,113 1101,263 C 1107,284 1118,290 1137,285 L 1138,291 1074,308 1072,302 C 1090,297 1097,289 1089,258 L 1057,134 C 1051,110 1041,98 1015,102 L 1014,96 1069,82 1244,214 1245,214 1213,89 C 1206,61 1197,56 1178,61 L 1177,54 1241,38 1243,44 C 1222,49 1217,60 1224,85 L 1268,258 1262,260 Z"/>
        <path fill="rgb(14,43,88)" stroke="none" d="M 1474,233 L 1475,240 1395,244 1395,237 C 1413,236 1420,229 1418,201 L 1412,64 C 1410,36 1404,29 1385,30 L 1385,24 1464,20 1464,26 C 1446,27 1439,36 1441,62 L 1448,200 C 1449,226 1456,234 1474,233 Z"/>
        <path fill="rgb(14,43,88)" stroke="none" d="M 1664,254 L 1620,68 C 1613,40 1609,29 1589,25 L 1590,19 1669,29 1668,36 C 1653,34 1644,41 1648,59 L 1683,207 1751,78 C 1761,60 1759,48 1739,45 L 1740,39 1804,47 1803,54 C 1786,52 1772,63 1757,91 L 1670,255 1664,254 Z"/>
        <path fill="rgb(14,43,88)" stroke="none" d="M 2011,257 C 2013,237 2011,234 1990,226 L 1938,207 1911,281 C 1908,292 1910,297 1921,301 L 1957,314 C 1988,325 1996,327 2018,304 L 2024,306 2001,342 1852,287 1854,281 C 1870,287 1879,285 1889,257 L 1936,128 C 1946,102 1943,93 1925,86 L 1927,80 2076,135 2064,169 2060,168 C 2063,144 2057,139 2034,131 L 1974,109 1942,197 2000,219 C 2014,224 2020,223 2030,207 L 2036,209 2017,259 2011,257 Z"/>
        <path fill="rgb(14,43,88)" stroke="none" d="M 2207,336 L 2222,346 C 2256,368 2237,418 2244,482 L 2281,506 2285,501 C 2256,479 2284,410 2264,366 2297,375 2319,366 2332,345 2348,321 2344,284 2302,257 L 2227,207 2223,213 C 2238,222 2241,231 2225,255 L 2149,370 C 2133,395 2124,395 2109,386 L 2106,391 2172,435 2176,429 C 2160,419 2159,409 2174,386 L 2207,336 Z M 2287,257 C 2315,275 2322,305 2306,329 2292,350 2266,364 2235,343 L 2212,328 2267,244 2287,257 Z"/>
        <path fill="rgb(14,43,88)" stroke="none" d="M 2553,531 C 2574,505 2567,480 2551,464 2535,448 2515,445 2500,459 2471,488 2503,535 2502,580 2502,602 2495,614 2485,624 2460,649 2420,648 2396,624 2379,607 2374,585 2369,580 2366,577 2362,577 2357,580 L 2352,575 2395,533 2399,538 C 2371,567 2384,600 2398,614 2417,632 2440,634 2457,618 2484,591 2455,536 2455,501 2456,482 2463,468 2475,456 2499,432 2532,433 2558,459 2574,475 2576,489 2582,495 2584,498 2585,498 2590,495 L 2595,499 2558,535 2553,531 Z"/>
        <path fill="rgb(14,43,88)" stroke="none" d="M 2562,811 L 2557,815 2512,750 2517,746 C 2527,761 2537,763 2560,747 L 2673,669 C 2695,653 2698,644 2687,628 L 2692,625 2738,690 2732,693 C 2722,678 2711,678 2689,693 L 2577,771 C 2554,786 2551,796 2562,811 Z"/>
        <path fill="rgb(14,43,88)" stroke="none" d="M 2665,1007 L 2659,1009 2627,938 2633,936 C 2639,950 2647,956 2675,944 L 2828,874 2814,845 C 2802,818 2789,809 2767,817 L 2764,811 2810,790 2813,796 C 2812,800 2811,804 2812,809 2813,815 2815,821 2819,829 L 2867,934 C 2875,952 2881,959 2889,963 L 2892,969 2846,990 2845,986 C 2860,975 2868,962 2854,931 L 2840,900 2686,971 C 2662,982 2657,989 2665,1007 Z"/>
        <path fill="rgb(14,43,88)" stroke="none" d="M 2744,1270 L 2737,1271 2721,1192 2727,1191 C 2731,1208 2736,1217 2767,1210 L 2834,1195 2896,1134 C 2916,1114 2920,1107 2917,1090 L 2923,1088 2942,1172 2935,1174 C 2930,1150 2921,1149 2910,1161 L 2854,1217 2915,1240 C 2934,1247 2950,1244 2946,1226 L 2953,1225 2965,1284 2959,1285 C 2954,1269 2949,1264 2927,1256 L 2841,1224 2773,1238 C 2747,1244 2740,1251 2744,1270 Z"/>
        <path fill="rgb(14,43,88)" stroke="none" d="M 73,1909 C 91,1972 154,2008 217,1990 279,1972 313,1909 295,1846 276,1782 215,1746 152,1764 89,1782 54,1846 73,1909 Z M 287,1849 C 299,1893 272,1939 206,1958 155,1973 96,1960 81,1907 67,1859 99,1815 161,1797 222,1779 272,1799 287,1849 Z"/>
        <path fill="rgb(14,43,88)" stroke="none" d="M 222,2231 L 216,2234 177,2165 183,2162 C 192,2178 201,2180 225,2166 L 344,2099 C 369,2085 372,2075 363,2060 L 368,2056 443,2187 409,2207 406,2203 C 427,2185 425,2178 413,2157 L 386,2109 306,2154 334,2204 C 342,2218 352,2220 369,2212 L 372,2218 318,2248 315,2243 C 328,2235 333,2223 325,2210 L 296,2160 240,2192 C 216,2205 213,2215 222,2231 Z"/>
        <path fill="rgb(14,43,88)" stroke="none" d="M 657,2612 C 665,2595 664,2591 647,2576 L 604,2542 554,2603 C 548,2611 548,2617 557,2625 L 587,2649 C 612,2669 619,2673 648,2659 L 653,2663 619,2689 496,2588 500,2583 C 514,2594 523,2595 542,2572 L 629,2466 C 646,2445 646,2435 632,2423 L 636,2418 759,2519 735,2547 732,2545 C 743,2523 739,2516 720,2501 L 671,2461 611,2533 659,2573 C 670,2582 677,2584 691,2571 L 696,2575 662,2616 657,2612 Z"/>
        <path fill="rgb(14,43,88)" stroke="none" d="M 815,2766 C 804,2791 794,2795 778,2787 L 775,2793 870,2837 C 948,2873 1002,2841 1025,2791 1049,2739 1036,2671 960,2636 L 867,2593 865,2599 C 881,2607 884,2617 873,2641 L 815,2766 Z M 951,2641 C 1014,2670 1016,2729 994,2777 969,2832 923,2852 874,2829 L 853,2820 C 835,2811 831,2802 845,2771 L 913,2624 951,2641 Z"/>
        <path fill="rgb(14,43,88)" stroke="none" d="M 1219,2944 L 1218,2951 1141,2934 1142,2927 C 1160,2931 1168,2926 1174,2899 L 1204,2764 C 1210,2738 1205,2729 1187,2725 L 1188,2719 1266,2736 1264,2742 C 1246,2738 1238,2745 1232,2771 L 1203,2905 C 1197,2931 1201,2940 1219,2944 Z"/>
        <path fill="rgb(14,43,88)" stroke="none" d="M 1594,2976 L 1437,2786 1436,2786 1438,2941 C 1438,2963 1447,2971 1467,2971 L 1467,2977 1400,2978 1400,2972 C 1419,2971 1427,2965 1427,2934 L 1426,2805 C 1425,2780 1419,2766 1393,2764 L 1392,2758 1449,2757 1588,2927 1589,2927 1588,2798 C 1587,2770 1580,2762 1560,2763 L 1560,2756 1627,2755 1627,2762 C 1605,2762 1599,2771 1599,2797 L 1601,2976 1594,2976 Z"/>
        <path fill="rgb(14,43,88)" stroke="none" d="M 1834,2826 L 1854,2821 C 1891,2810 1920,2825 1929,2856 1938,2887 1921,2907 1900,2913 L 1882,2918 C 1866,2922 1859,2917 1851,2888 L 1834,2826 Z M 1823,2900 C 1831,2926 1827,2935 1809,2940 L 1810,2946 1908,2919 C 1948,2909 1971,2881 1962,2849 1954,2820 1925,2802 1891,2804 L 1891,2804 C 1917,2786 1926,2767 1920,2744 1913,2717 1883,2698 1832,2712 L 1752,2734 1754,2740 C 1772,2736 1780,2740 1787,2768 L 1823,2900 Z M 1807,2728 L 1828,2722 C 1862,2713 1884,2727 1891,2754 1898,2780 1884,2803 1853,2812 L 1831,2818 1807,2728 Z"/>
        <path fill="rgb(14,43,88)" stroke="none" d="M 2234,2788 C 2188,2815 2150,2793 2131,2760 L 2076,2667 C 2062,2641 2052,2640 2037,2649 L 2034,2643 2103,2603 2106,2609 C 2090,2618 2087,2627 2101,2651 L 2158,2748 C 2174,2777 2203,2788 2235,2770 2257,2757 2270,2735 2271,2706 L 2204,2592 C 2192,2570 2182,2565 2167,2573 L 2163,2568 2230,2529 2234,2534 C 2218,2544 2216,2554 2230,2577 L 2299,2695 C 2313,2720 2323,2722 2338,2713 L 2341,2719 2295,2746 2279,2720 C 2273,2752 2259,2773 2234,2788 Z"/>
        <path fill="rgb(14,43,88)" stroke="none" d="M 2446,2498 L 2458,2486 C 2487,2457 2532,2485 2596,2491 L 2628,2459 2623,2454 C 2596,2479 2534,2438 2487,2448 2502,2418 2497,2395 2480,2378 2459,2357 2422,2354 2387,2389 L 2324,2454 2329,2458 C 2341,2446 2350,2444 2370,2465 L 2469,2562 C 2490,2582 2488,2592 2476,2604 L 2481,2608 2536,2552 2532,2548 C 2519,2560 2508,2559 2489,2541 L 2446,2498 Z M 2384,2405 C 2408,2381 2438,2380 2459,2400 2477,2418 2485,2446 2458,2473 L 2440,2492 2368,2421 2384,2405 Z"/>
        <path fill="rgb(14,43,88)" stroke="none" d="M 2781,2247 C 2730,2330 2664,2327 2620,2301 2553,2260 2547,2187 2575,2141 2591,2114 2606,2109 2615,2095 2619,2089 2619,2085 2615,2080 L 2619,2074 2674,2108 2671,2113 C 2632,2097 2598,2119 2582,2145 2559,2184 2575,2233 2626,2265 2681,2298 2742,2290 2769,2246 2777,2232 2785,2212 2768,2202 L 2748,2190 C 2725,2176 2714,2176 2704,2191 L 2700,2199 2694,2195 2741,2119 2746,2122 C 2735,2141 2741,2151 2757,2161 L 2808,2192 C 2804,2204 2786,2239 2781,2247 Z"/>
        <path fill="rgb(14,43,88)" stroke="none" d="M 2863,1955 C 2889,1963 2899,1959 2904,1941 L 2910,1943 2888,2019 2882,2017 C 2886,2001 2883,1992 2855,1983 L 2723,1945 C 2698,1938 2688,1941 2683,1960 L 2676,1958 2698,1881 2705,1883 C 2700,1900 2704,1910 2731,1917 L 2791,1935 2825,1820 2764,1802 C 2739,1795 2729,1798 2724,1816 L 2718,1814 2740,1739 2746,1740 C 2741,1759 2748,1767 2773,1774 L 2904,1812 C 2929,1819 2940,1816 2945,1798 L 2951,1800 2929,1875 2923,1874 C 2928,1857 2924,1848 2896,1840 L 2835,1822 2802,1938 2863,1955 Z"/>
        <path fill="rgb(14,43,88)" stroke="none" d="M 122,1538 C 111,1538 103,1529 103,1518 103,1507 111,1499 122,1499 133,1499 141,1508 141,1518 141,1529 133,1538 122,1538 Z"/>
        <path fill="rgb(14,43,88)" stroke="none" d="M 2875,1538 C 2864,1538 2856,1529 2856,1518 2856,1508 2865,1499 2875,1499 2886,1499 2895,1508 2895,1519 2894,1529 2886,1538 2875,1538 Z"/>
        <path fill="rgb(14,43,88)" stroke="none" d="M 2108,2490 C 2120,2482 2133,2474 2146,2467 2157,2458 2167,2449 2179,2440 2192,2431 2204,2423 2216,2414 2218,2411 2221,2409 2223,2406 2226,2405 2229,2403 2232,2402 2242,2394 2253,2384 2263,2375 2270,2368 2276,2360 2285,2353 2293,2345 2302,2339 2310,2331 2313,2328 2315,2324 2319,2321 2325,2315 2332,2308 2338,2301 2343,2296 2347,2291 2351,2286 2366,2271 2380,2255 2393,2239 2403,2227 2413,2214 2424,2202 2431,2192 2437,2183 2444,2173 2448,2169 2451,2165 2455,2162 2466,2146 2477,2131 2488,2115 2491,2110 2493,2104 2496,2099 2499,2095 2501,2092 2504,2088 2506,2084 2508,2079 2510,2075 2517,2062 2524,2049 2532,2036 2537,2026 2543,2016 2549,2006 2554,1996 2557,1986 2561,1975 2567,1965 2571,1954 2577,1944 2594,1898 2610,1852 2624,1804 2625,1799 2626,1793 2627,1787 2631,1770 2636,1752 2639,1734 2640,1725 2641,1716 2642,1707 2645,1692 2648,1676 2650,1661 2651,1649 2651,1637 2652,1625 2653,1620 2654,1615 2655,1611 2656,1600 2656,1590 2657,1580 2657,1575 2659,1570 2659,1565 2659,1558 2659,1551 2659,1543 2662,1498 2663,1448 2661,1402 2659,1378 2654,1355 2651,1332 2649,1307 2647,1283 2642,1260 2628,1195 2610,1132 2588,1072 2584,1064 2579,1056 2576,1047 2569,1029 2560,1013 2552,996 2549,991 2546,986 2543,981 2536,966 2531,950 2523,936 2518,927 2513,919 2507,911 2503,901 2498,892 2494,883 2478,858 2461,833 2444,808 2438,800 2431,793 2425,786 2418,776 2411,767 2403,758 2397,751 2389,745 2383,738 2379,734 2378,729 2374,724 2369,719 2363,713 2358,707 2355,704 2352,701 2348,698 2340,689 2333,680 2324,670 2317,664 2310,657 2302,650 2295,643 2288,636 2281,628 2271,621 2261,613 2252,606 2242,597 2231,588 2221,579 2215,574 2207,571 2201,566 2192,560 2183,554 2174,547 2168,543 2162,538 2156,532 2152,530 2147,527 2142,524 2136,519 2130,515 2123,510 2102,498 2080,488 2059,477 2051,472 2043,467 2035,462 2021,455 2008,448 1994,442 1983,436 1972,433 1960,428 1955,425 1949,422 1944,419 1939,417 1935,416 1931,414 1924,411 1917,408 1910,405 1889,397 1867,392 1845,385 1834,382 1823,378 1813,374 1790,368 1767,364 1743,359 1728,355 1712,351 1696,348 1686,347 1676,346 1666,344 1649,341 1630,338 1613,336 1606,335 1599,335 1592,335 1588,334 1583,334 1578,333 1569,333 1560,333 1551,333 1530,331 1508,330 1487,330 1478,332 1466,330 1457,330 L 1424,330 C 1420,331 1417,331 1414,332 1407,332 1399,332 1391,333 1387,333 1383,335 1379,335 1375,336 1371,336 1367,337 1363,337 1359,337 1355,338 1353,338 1351,339 1348,339 1343,339 1338,339 1334,341 1323,341 1307,342 1299,347 1296,347 1294,347 1291,348 1284,348 1275,348 1270,352 1252,352 1237,359 1221,363 1212,365 1202,366 1194,371 1187,371 1180,372 1174,375 1163,375 1153,382 1143,386 1137,388 1130,388 1125,391 1114,391 1104,398 1095,402 1088,405 1082,408 1075,410 1040,425 1006,442 973,459 967,463 961,466 955,470 915,491 875,513 840,542 829,549 819,557 808,564 803,569 797,574 792,579 782,587 771,593 761,602 741,619 722,638 703,656 692,667 680,677 668,688 664,692 661,697 657,701 651,706 646,711 641,716 633,724 627,735 619,743 612,750 605,756 598,764 596,768 593,772 590,776 578,790 566,803 555,818 548,829 541,840 534,851 524,865 512,882 504,897 501,901 499,906 497,911 490,923 483,934 476,946 470,958 466,971 460,983 457,988 454,992 451,997 445,1008 440,1019 434,1030 431,1037 428,1044 425,1051 422,1058 418,1065 415,1072 412,1081 409,1089 406,1097 403,1106 400,1115 396,1124 379,1180 364,1236 353,1295 352,1306 351,1317 350,1328 348,1341 344,1355 343,1368 342,1378 342,1389 339,1398 338,1406 338,1414 337,1422 335,1470 337,1515 338,1561 338,1583 343,1605 345,1627 345,1637 346,1646 346,1656 349,1685 354,1716 359,1745 361,1753 363,1760 365,1768 370,1791 376,1814 382,1836 384,1841 386,1846 388,1851 389,1857 391,1862 392,1867 401,1892 410,1917 418,1941 423,1951 427,1960 431,1969 434,1976 435,1983 438,1988 445,2004 454,2019 462,2034 469,2046 476,2058 483,2071 484,2075 486,2080 488,2084 490,2087 492,2089 495,2092 497,2097 499,2103 502,2108 508,2118 515,2128 522,2138 527,2143 531,2150 535,2156 541,2163 548,2170 554,2178 558,2185 563,2191 567,2198 575,2208 584,2218 592,2227 599,2236 606,2245 613,2254 621,2263 630,2272 639,2281 646,2289 652,2299 660,2306 672,2317 683,2328 694,2339 699,2344 705,2350 711,2356 720,2364 731,2370 740,2379 749,2387 758,2395 767,2404 773,2409 779,2414 786,2419 794,2425 800,2433 809,2439 819,2446 829,2454 839,2460 846,2464 854,2466 861,2471 869,2477 877,2482 884,2488 892,2493 901,2497 909,2502 939,2520 969,2536 1001,2551 1015,2558 1028,2566 1043,2571 1056,2577 1070,2582 1083,2587 1088,2588 1093,2590 1098,2591 1112,2596 1125,2602 1138,2607 1142,2608 1145,2609 1149,2610 1161,2614 1172,2620 1184,2623 1199,2626 1213,2629 1228,2631 1249,2636 1272,2643 1294,2646 1302,2647 1310,2647 1318,2648 1329,2649 1339,2652 1351,2653 1359,2653 1367,2654 1376,2654 1381,2655 1387,2656 1392,2657 1398,2657 1404,2657 1410,2658 1423,2660 1436,2662 1449,2664 1456,2664 1463,2664 1470,2665 1474,2664 1478,2663 1482,2663 1494,2663 1508,2665 1520,2665 1528,2665 1535,2665 1543,2665 1558,2666 1573,2663 1587,2661 1593,2661 1599,2660 1606,2660 1615,2659 1624,2658 1632,2657 1664,2654 1694,2650 1725,2644 1735,2642 1745,2639 1756,2636 1768,2634 1781,2631 1794,2628 1801,2627 1807,2623 1813,2621 1823,2618 1834,2615 1844,2611 1849,2610 1853,2608 1858,2607 1865,2605 1872,2604 1880,2601 1895,2596 1910,2591 1926,2585 1935,2581 1944,2577 1953,2572 1962,2569 1971,2565 1980,2561 1982,2559 1985,2558 1987,2556 1996,2552 2006,2548 2015,2543 2025,2537 2036,2531 2046,2525 2052,2522 2058,2521 2063,2518 2079,2510 2093,2499 2108,2490 Z"/>
        <path fill="rgb(255,255,255)" stroke="none" d="M 1486,2565 C 1485,2565 1485,2565 1485,2564 1484,2564 1483,2562 1482,2561 1478,2555 1474,2549 1470,2542 1462,2533 1454,2523 1446,2513 1421,2490 1392,2470 1362,2457 1355,2454 1349,2452 1343,2450 1336,2447 1330,2443 1322,2440 1316,2438 1308,2437 1301,2436 1294,2434 1286,2432 1279,2430 1263,2427 1247,2423 1232,2420 1217,2418 1201,2416 1186,2414 1174,2413 1162,2414 1151,2413 1095,2407 1041,2402 988,2393 969,2390 952,2390 934,2387 916,2384 899,2379 882,2373 873,2370 863,2368 854,2365 845,2361 836,2357 827,2353 821,2350 815,2347 809,2345 805,2342 801,2339 796,2336 794,2335 792,2334 790,2333 776,2321 764,2305 753,2291 744,2280 740,2267 736,2254 734,2247 732,2241 730,2234 723,2204 724,2172 724,2139 723,2133 722,2126 722,2119 723,2095 724,2070 725,2045 725,2040 725,2034 724,2029 724,2004 725,1980 725,1955 725,1939 726,1923 726,1907 725,1840 726,1773 728,1706 727,1696 727,1687 726,1677 726,1667 727,1657 727,1647 727,1642 727,1637 727,1632 728,1617 730,1602 731,1586 731,1575 730,1563 730,1552 730,1544 731,1535 731,1527 731,1520 729,1513 729,1505 730,1499 730,1492 730,1486 730,1473 729,1459 730,1445 730,1437 731,1429 731,1421 730,1412 729,1403 729,1393 730,1382 731,1371 732,1360 732,1349 731,1338 731,1328 732,1305 733,1281 733,1257 733,1252 733,1247 733,1243 733,1233 732,1222 732,1212 733,1204 733,1195 734,1186 735,1144 735,1100 736,1059 L 736,1016 C 736,1006 734,996 734,986 735,979 735,972 735,965 736,929 735,894 735,857 735,844 736,832 736,820 736,805 735,790 735,775 736,765 737,756 737,745 737,737 735,726 738,719 738,717 740,717 742,717 756,715 775,713 791,716 810,719 830,715 850,715 868,716 886,716 904,716 915,715 925,715 936,714 956,714 975,715 995,715 1019,715 1045,715 1069,715 1077,715 1084,715 1091,716 1101,715 1111,715 1121,714 1130,714 1138,716 1147,716 1158,716 1168,715 1179,715 1196,716 1214,716 1231,717 1239,717 1247,718 1255,719 1280,718 1304,717 1328,717 1344,718 1360,718 1376,719 1389,718 1402,716 1416,716 1426,716 1437,717 1447,717 1456,717 1465,717 1474,716 1485,717 1495,718 1506,719 1514,719 1522,718 1530,718 1546,718 1562,719 1578,719 1585,719 1593,718 1600,718 1644,717 1685,718 1729,717 1738,717 1748,716 1757,716 1777,715 1797,716 1816,715 1820,715 1824,714 1828,714 1845,715 1864,714 1881,714 1889,714 1894,716 1902,716 1909,716 1917,716 1925,715 1937,716 1952,718 1965,717 1974,717 1982,716 1991,716 1998,716 2004,717 2010,718 2019,718 2030,717 2039,717 2045,718 2052,719 2058,720 2064,720 2069,720 2075,719 2080,720 2086,720 2092,720 2098,720 2103,720 2109,719 2120,719 2130,721 2141,720 2157,719 2173,721 2191,721 2199,720 2207,720 2215,719 2220,720 2226,720 2231,720 2236,720 2243,719 2247,721 2247,722 2248,722 2248,722 2252,728 2250,737 2250,745 2250,768 2249,790 2250,813 2251,827 2251,843 2251,858 2250,862 2250,867 2250,872 2250,882 2251,892 2251,902 2251,912 2250,923 2249,933 2250,946 2251,959 2252,973 2251,978 2251,983 2250,988 2250,997 2252,1005 2251,1013 2251,1022 2250,1031 2250,1040 2250,1050 2249,1061 2249,1072 2249,1080 2248,1088 2248,1097 2249,1110 2249,1123 2250,1136 2250,1141 2250,1146 2249,1150 2249,1162 2248,1173 2248,1183 2248,1202 2250,1223 2250,1241 2249,1245 2249,1249 2249,1253 2249,1262 2249,1270 2250,1279 2249,1288 2248,1299 2248,1310 2248,1318 2250,1325 2250,1333 2249,1337 2249,1341 2248,1345 2248,1350 2248,1356 2249,1361 2248,1381 2246,1401 2247,1422 2247,1432 2247,1442 2248,1453 2248,1457 2249,1461 2249,1465 2249,1472 2248,1478 2248,1485 2248,1490 2249,1494 2249,1498 2248,1506 2248,1513 2247,1521 2247,1531 2250,1542 2249,1552 2248,1582 2247,1610 2246,1640 2246,1652 2248,1662 2248,1674 2247,1681 2247,1687 2246,1694 2246,1708 2246,1722 2246,1735 2245,1743 2244,1750 2244,1758 2244,1786 2244,1814 2245,1842 2245,1862 2243,1883 2243,1902 2244,1913 2244,1923 2244,1934 2244,1938 2244,1942 2244,1946 2244,1953 2244,1961 2244,1968 2243,1987 2244,2005 2244,2022 2244,2043 2244,2066 2244,2088 2244,2094 2243,2100 2243,2107 2244,2110 2244,2114 2244,2118 2244,2131 2243,2144 2243,2156 2242,2167 2244,2179 2243,2190 2242,2197 2240,2204 2239,2210 2238,2218 2238,2225 2237,2233 2234,2245 2225,2263 2218,2274 2212,2284 2203,2289 2195,2296 2191,2300 2186,2303 2181,2307 2172,2315 2164,2323 2154,2328 2148,2330 2141,2332 2135,2335 2122,2340 2110,2346 2097,2350 2085,2355 2072,2358 2060,2363 2057,2364 2054,2365 2051,2366 2045,2366 2036,2369 2031,2372 2025,2372 2019,2373 2014,2375 2006,2375 2000,2377 1993,2380 1990,2381 1988,2381 1986,2382 1982,2382 1978,2382 1976,2384 1969,2384 1953,2387 1948,2390 1942,2390 1935,2389 1930,2391 1926,2391 1922,2391 1920,2393 1914,2393 1908,2392 1903,2395 1901,2395 1898,2395 1895,2396 1891,2396 1886,2396 1883,2398 1879,2398 1875,2398 1872,2400 1865,2399 1854,2398 1848,2402 1846,2402 1843,2402 1840,2402 1833,2402 1825,2400 1819,2403 1815,2403 1810,2403 1807,2404 1805,2405 1803,2405 1801,2405 1794,2405 1786,2404 1780,2406 1778,2407 1775,2407 1772,2407 1770,2408 1768,2408 1766,2408 1764,2408 1762,2409 1760,2409 1757,2410 1754,2410 1751,2410 1747,2410 1742,2410 1738,2412 1736,2412 1733,2413 1730,2413 1726,2413 1721,2413 1717,2415 1713,2415 1708,2415 1705,2417 1701,2417 1697,2417 1695,2419 1691,2419 1688,2419 1686,2421 1684,2421 1682,2421 1679,2422 1674,2422 1667,2423 1663,2426 1660,2426 1657,2426 1654,2428 1643,2428 1634,2433 1625,2436 1618,2439 1611,2441 1604,2444 1590,2444 1576,2456 1566,2465 1557,2472 1546,2475 1537,2484 1513,2506 1498,2536 1486,2565 L 1486,2565 Z"/>
        <path fill="rgb(14,43,88)" stroke="none" d="M 1619,2413 C 1631,2409 1644,2407 1657,2404 1682,2399 1705,2392 1730,2387 1736,2387 1742,2386 1748,2386 1757,2384 1766,2382 1776,2381 1789,2380 1802,2380 1815,2380 1830,2379 1846,2375 1862,2374 1876,2373 1890,2373 1903,2371 1916,2369 1928,2367 1940,2365 1944,2365 1948,2364 1952,2364 1971,2361 1989,2356 2008,2352 2014,2351 2020,2350 2026,2348 2043,2343 2060,2336 2077,2331 2091,2326 2105,2322 2118,2316 2130,2311 2139,2303 2150,2297 2169,2284 2190,2272 2202,2251 2208,2242 2213,2229 2214,2218 2215,2213 2215,2208 2215,2203 2219,2181 2218,2157 2218,2134 2219,2126 2219,2118 2219,2110 2219,2105 2219,2101 2218,2096 L 2218,2070 C 2218,2067 2218,2063 2217,2060 2217,2057 2218,2054 2218,2051 2218,2047 2217,2045 2217,2041 2217,2035 2219,2030 2219,2024 2219,2017 2217,2012 2217,2006 2217,1998 2219,1992 2219,1985 2220,1958 2219,1931 2220,1905 2220,1899 2220,1892 2220,1886 2220,1862 2220,1839 2220,1816 2221,1752 2220,1684 2222,1620 2222,1614 2221,1607 2221,1600 2220,1598 2220,1596 2220,1594 2220,1589 2221,1583 2221,1578 2221,1574 2220,1570 2220,1567 2220,1561 2222,1556 2221,1550 2221,1538 2218,1528 2219,1517 2219,1508 2220,1501 2220,1494 2220,1490 2220,1487 2220,1483 2220,1479 2221,1475 2222,1472 2221,1467 2221,1463 2220,1459 2221,1454 2221,1449 2222,1443 2222,1439 2220,1435 2220,1430 2220,1402 2220,1374 2221,1347 2221,1340 2222,1336 2223,1329 2223,1323 2221,1319 2221,1313 2222,1310 2222,1307 2223,1304 2223,1295 2223,1286 2224,1276 2224,1263 2224,1247 2223,1233 2223,1228 2222,1223 2221,1219 2221,1207 2223,1197 2223,1186 2223,1177 2222,1169 2222,1160 2222,1095 2219,1032 2222,967 2222,932 2222,896 2223,860 2223,841 2222,820 2222,802 2221,782 2222,765 2222,745 L 2221,745 C 2221,743 2211,745 2210,745 2191,745 2172,745 2153,745 2140,744 2128,743 2115,743 2111,743 2107,743 2104,744 2099,744 2094,745 2090,745 2083,745 2076,744 2069,743 2045,743 2022,742 1998,742 1991,742 1974,740 1969,742 1957,742 1945,742 1933,742 1924,741 1910,737 1901,741 1899,741 1896,741 1893,742 1884,742 1876,741 1867,741 1854,740 1841,738 1827,738 1817,741 1802,736 1793,740 1790,740 1787,741 1785,741 L 1753,741 C 1748,741 1741,740 1737,742 1733,742 1729,741 1727,743 1718,743 1710,741 1702,741 1681,741 1660,740 1639,740 1631,740 1620,739 1614,741 1611,741 1609,742 1606,742 1603,742 1600,743 1597,743 1585,743 1566,737 1556,741 1554,741 1552,741 1550,742 1545,742 1540,742 1536,744 1506,744 1476,743 1447,743 1439,743 1431,743 1423,743 1420,743 1414,741 1411,743 1404,743 1396,743 1389,743 1378,742 1355,738 1346,742 1339,742 1332,741 1326,741 1321,741 1316,740 1311,741 1305,741 1297,740 1292,742 1280,742 1269,740 1256,740 1253,740 1248,740 1244,741 1237,741 1226,740 1220,742 1208,742 1197,742 1185,742 1180,742 1172,741 1168,743 1153,743 1139,743 1124,743 1115,742 1097,739 1089,742 1080,742 1064,739 1056,742 1037,742 1019,741 1000,740 994,739 983,737 977,740 973,740 969,739 966,741 958,740 948,739 942,741 936,741 926,740 921,742 897,742 871,741 846,741 838,741 827,739 821,742 812,742 792,740 784,743 779,743 770,741 766,745 760,750 764,776 764,785 764,792 763,799 763,806 763,812 764,818 763,825 763,834 763,844 763,853 762,879 762,904 762,931 762,938 760,943 760,950 760,957 761,964 761,970 760,977 760,983 759,990 759,1003 759,1017 760,1030 759,1053 758,1078 758,1102 758,1112 759,1122 759,1131 759,1134 760,1137 760,1140 759,1146 759,1152 758,1157 758,1199 757,1238 757,1280 757,1299 758,1316 758,1333 757,1342 756,1351 756,1360 756,1373 756,1386 756,1400 756,1426 755,1453 755,1480 756,1489 756,1499 757,1508 756,1521 755,1533 755,1545 754,1593 755,1643 756,1691 756,1703 754,1714 754,1726 753,1739 753,1752 753,1765 754,1771 754,1776 754,1782 753,1826 752,1868 752,1912 751,1932 749,1950 749,1969 749,1978 749,1986 749,1995 750,1998 750,2001 751,2005 750,2008 750,2012 749,2015 749,2025 748,2035 748,2044 748,2056 748,2069 749,2082 749,2088 750,2092 750,2098 750,2104 749,2109 748,2114 748,2121 750,2127 750,2134 750,2186 750,2237 774,2277 791,2304 821,2322 849,2334 868,2342 887,2351 908,2356 923,2360 938,2362 954,2364 967,2366 979,2370 992,2371 1004,2372 1016,2373 1029,2374 1055,2377 1080,2382 1107,2385 1119,2385 1132,2386 1145,2387 1150,2388 1155,2389 1161,2390 1171,2390 1181,2390 1190,2391 1201,2392 1211,2393 1222,2394 1227,2394 1233,2394 1238,2394 1243,2395 1248,2397 1252,2398 1266,2400 1278,2401 1292,2404 1296,2405 1300,2407 1304,2408 1314,2411 1322,2413 1331,2416 1344,2421 1357,2426 1369,2430 1379,2435 1388,2439 1397,2444 1402,2448 1407,2451 1412,2454 1422,2460 1432,2465 1442,2473 1453,2482 1461,2494 1471,2504 1474,2508 1476,2513 1481,2515 1481,2517 1481,2516 1483,2516 1483,2515 1488,2511 1489,2510 1491,2506 1493,2503 1495,2500 1518,2467 1551,2444 1584,2426 1590,2425 1595,2423 1600,2421 1606,2418 1612,2415 1619,2413 Z"/>
        <path fill="rgb(255,255,255)" stroke="none" d="M 1606,872 L 1603,872 C 1603,869 1603,866 1602,862 1604,852 1612,848 1618,840 1629,849 1612,864 1606,871 L 1606,872 Z"/>
        <path fill="rgb(255,255,255)" stroke="none" d="M 1669,771 C 1672,768 1675,765 1679,762 1686,763 1693,764 1701,764 L 1701,767 C 1690,767 1661,803 1655,812 1651,816 1648,825 1643,827 1640,829 1636,827 1634,826 1627,822 1632,814 1634,809 1635,806 1636,802 1638,800 1641,799 1644,797 1647,796 1650,793 1655,790 1658,787 1663,782 1665,776 1669,771 Z"/>
        <path fill="rgb(255,255,255)" stroke="none" d="M 1594,795 C 1597,789 1605,788 1610,783 1614,779 1615,774 1618,769 1622,765 1627,764 1632,761 L 1644,761 C 1644,767 1637,772 1635,776 1631,781 1628,787 1625,793 1621,798 1617,803 1613,809 1610,813 1609,818 1606,821 1603,823 1601,825 1598,827 1596,830 1594,832 1592,835 1590,837 1587,839 1585,841 1581,846 1581,853 1575,858 1570,861 1562,864 1555,862 L 1553,862 C 1553,859 1566,838 1569,835 1572,833 1576,833 1578,830 1580,827 1580,823 1582,820 1584,817 1588,815 1590,811 1591,806 1591,800 1594,795 Z"/>
        <path fill="rgb(255,255,255)" stroke="none" d="M 1520,783 C 1522,777 1519,772 1524,768 1528,763 1554,767 1563,762 1568,762 1573,762 1579,762 L 1579,764 C 1577,764 1577,765 1577,766 1569,777 1565,790 1559,803 1556,807 1554,812 1551,816 1549,821 1547,826 1545,831 1540,841 1527,857 1515,860 L 1515,859 C 1513,859 1514,849 1514,848 1513,843 1511,839 1512,834 1512,829 1515,825 1515,819 1515,811 1511,804 1512,797 1514,792 1518,788 1520,783 Z"/>
        <path fill="rgb(255,255,255)" stroke="none" d="M 1456,760 C 1462,762 1479,761 1486,762 1486,766 1487,771 1487,775 1488,778 1488,782 1489,785 1488,789 1488,793 1487,796 1487,813 1485,828 1484,844 1485,854 1485,864 1486,874 L 1485,874 1485,873 C 1472,873 1457,833 1452,824 1449,819 1444,816 1441,811 1433,801 1420,774 1431,763 1435,759 1450,761 1456,760 Z"/>
        <path fill="rgb(255,255,255)" stroke="none" d="M 1349,770 C 1351,764 1368,763 1373,760 1379,760 1387,759 1392,761 1406,769 1411,790 1417,803 1421,812 1426,820 1430,829 1433,833 1435,838 1438,842 1440,847 1441,852 1441,857 1441,861 1442,868 1438,870 1435,871 1431,871 1428,870 1423,868 1350,777 1349,772 L 1349,771 1349,770 C 1349,770 1349,770 1349,770 Z"/>
        <path fill="rgb(255,255,255)" stroke="none" d="M 1327,770 C 1335,778 1342,787 1348,796 1352,800 1354,806 1358,810 1363,816 1368,821 1373,826 1377,832 1382,838 1386,843 1388,846 1389,848 1391,851 1394,854 1398,857 1401,859 1408,866 1414,874 1417,883 1416,883 1416,884 1415,885 1410,885 1403,883 1399,880 1393,874 1386,867 1379,860 1375,856 1370,854 1367,850 1360,840 1354,829 1346,821 1341,816 1334,815 1329,810 1329,810 1328,810 1328,810 1323,804 1321,797 1317,791 1312,784 1304,779 1299,773 1299,772 1299,772 1299,771 1299,771 1299,771 1298,771 1298,765 1306,763 1309,761 1317,762 1321,764 1327,770 Z"/>
        <path fill="rgb(255,255,255)" stroke="none" d="M 1546,974 C 1554,977 1562,990 1559,999 1557,1004 1551,1008 1547,1012 1544,1014 1540,1017 1536,1017 1530,1016 1532,1004 1534,1001 1536,996 1541,995 1541,989 1542,982 1537,979 1537,973 1540,973 1543,973 1546,974 Z"/>
        <path fill="rgb(255,255,255)" stroke="none" d="M 1539,938 C 1533,937 1531,929 1526,925 1522,921 1512,919 1514,911 1514,907 1517,905 1520,904 L 1520,903 C 1527,905 1532,908 1538,911 1545,914 1552,915 1559,918 1561,919 1562,920 1561,922 1559,926 1555,929 1551,931 1548,933 1544,938 1539,938 Z"/>
        <path fill="rgb(255,255,255)" stroke="none" d="M 1514,1064 C 1505,1058 1522,1048 1525,1045 1530,1046 1539,1051 1538,1057 1537,1064 1520,1067 1514,1064 Z"/>
        <path fill="rgb(255,255,255)" stroke="none" d="M 1487,1047 C 1485,1046 1482,1045 1480,1043 1475,1037 1477,1031 1476,1023 1476,1019 1475,1014 1477,1011 1478,1007 1481,1006 1484,1004 1487,1004 1490,1004 1492,1006 1495,1008 1516,1027 1516,1030 1518,1037 1500,1049 1494,1050 1491,1051 1489,1048 1487,1047 Z"/>
        <path fill="rgb(255,255,255)" stroke="none" d="M 1603,1004 C 1603,1005 1599,1003 1598,1002 1598,995 1607,990 1612,985 L 1613,985 C 1613,993 1609,1001 1603,1004 Z"/>
        <path fill="rgb(255,255,255)" stroke="none" d="M 1586,976 C 1582,976 1581,974 1580,971 1579,968 1579,935 1580,933 1581,929 1587,926 1589,923 1597,926 1596,930 1599,937 1604,950 1607,962 1594,972 1591,974 1589,976 1586,976 Z"/>
        <path fill="rgb(255,255,255)" stroke="none" d="M 1581,1032 C 1581,1037 1568,1045 1564,1041 1558,1035 1565,1029 1569,1026 1575,1026 1578,1026 1581,1031 1582,1031 1582,1031 1581,1032 Z"/>
        <path fill="rgb(255,255,255)" stroke="none" d="M 1499,925 C 1505,927 1526,943 1524,951 1522,958 1515,962 1510,968 1504,973 1498,979 1490,980 1483,981 1472,947 1473,941 1474,938 1486,926 1488,925 1488,924 1488,924 1488,924 1492,924 1496,924 1499,925 Z"/>
        <path fill="rgb(255,255,255)" stroke="none" d="M 1450,1016 C 1446,1016 1444,1013 1441,1011 1435,1005 1430,993 1432,983 1433,981 1435,978 1436,975 1439,967 1438,965 1444,959 1453,963 1478,982 1476,993 1475,998 1468,1003 1465,1006 1461,1009 1456,1015 1450,1016 Z"/>
        <path fill="rgb(255,255,255)" stroke="none" d="M 1468,1062 C 1468,1064 1465,1062 1463,1062 1448,1059 1431,1055 1444,1036 1446,1037 1449,1037 1450,1038 1454,1041 1455,1045 1458,1048 1462,1053 1468,1055 1469,1062 L 1468,1062 Z"/>
        <path fill="rgb(255,255,255)" stroke="none" d="M 1409,922 L 1409,921 C 1422,929 1432,944 1419,958 1416,960 1412,964 1409,965 1397,966 1402,952 1402,946 1401,941 1400,936 1399,932 1399,932 1406,923 1409,922 Z"/>
        <path fill="rgb(255,255,255)" stroke="none" d="M 1422,910 C 1424,909 1426,909 1428,908 1441,907 1450,905 1460,899 1463,900 1469,900 1471,903 1476,912 1450,930 1442,930 1433,929 1428,918 1422,913 L 1422,910 Z"/>
        <path fill="rgb(255,255,255)" stroke="none" d="M 1412,999 C 1417,1002 1435,1019 1435,1024 1436,1030 1421,1040 1416,1041 1412,1042 1411,1038 1410,1035 1405,1024 1402,1011 1407,997 1409,998 1410,999 1412,999 Z"/>
        <path fill="rgb(255,255,255)" stroke="none" d="M 1378,964 C 1386,966 1400,983 1386,987 1376,989 1378,970 1378,964 Z"/>
        <path fill="rgb(255,255,255)" stroke="none" d="M 1537,2006 C 1539,2004 1541,2002 1543,2001 L 1543,2000 C 1548,2000 1554,2000 1559,2000 1559,2006 1535,2042 1528,2045 1524,2046 1518,2046 1513,2046 L 1513,2045 1512,2045 C 1512,2042 1534,2010 1537,2006 Z"/>
        <path fill="rgb(255,255,255)" stroke="none" d="M 1336,2043 C 1336,2034 1373,2007 1381,1999 L 1396,1999 C 1396,2007 1364,2038 1357,2041 1351,2044 1342,2042 1336,2043 Z"/>
        <path fill="rgb(255,255,255)" stroke="none" d="M 1615,2235 C 1611,2230 1610,2223 1608,2217 1605,2207 1601,2197 1598,2188 1595,2181 1590,2173 1591,2165 1592,2160 1596,2159 1599,2156 1602,2157 1605,2158 1606,2160 1608,2163 1609,2167 1610,2170 1613,2180 1616,2189 1619,2199 1622,2210 1627,2221 1632,2231 1633,2233 1638,2241 1634,2242 1628,2245 1619,2239 1615,2235 Z"/>
        <path fill="rgb(255,255,255)" stroke="none" d="M 1632,2044 C 1632,2045 1630,2046 1629,2046 1620,2046 1611,2046 1602,2046 1587,2046 1571,2046 1555,2046 1555,2046 1555,2045 1556,2045 L 1554,2045 C 1554,2041 1557,2038 1559,2036 1563,2027 1583,2001 1581,1991 1581,1988 1578,1986 1576,1985 1563,1980 1549,1984 1535,1984 1528,1983 1512,1980 1506,1983 1493,1983 1446,1976 1441,1988 1439,1990 1441,1994 1442,1996 1448,2007 1456,2017 1463,2026 1467,2033 1471,2039 1475,2044 L 1475,2045 C 1474,2046 1473,2046 1472,2046 1443,2046 1415,2045 1387,2045 L 1387,2043 C 1387,2043 1428,1994 1433,1988 1433,1987 1432,1987 1432,1986 1427,1986 1421,1985 1416,1984 1408,1984 1399,1983 1391,1983 1367,1982 1341,1984 1318,1981 1318,1979 1352,1945 1357,1940 1387,1909 1417,1880 1448,1849 1459,1838 1469,1828 1480,1817 1483,1814 1486,1810 1491,1809 L 1491,1806 C 1497,1810 1503,1817 1509,1823 1518,1832 1527,1842 1537,1851 1542,1856 1548,1862 1554,1867 1580,1894 1608,1920 1635,1947 1646,1958 1660,1970 1669,1983 1667,1983 1665,1983 1663,1983 1654,1983 1646,1983 1637,1983 1634,1983 1630,1982 1627,1983 1615,1983 1602,1982 1592,1986 1592,1990 1598,1995 1600,1999 1605,2005 1634,2038 1632,2044 Z"/>
        <path fill="rgb(255,255,255)" stroke="none" d="M 1407,2113 C 1428,2113 1446,2110 1466,2110 1492,2111 1520,2113 1547,2113 1561,2113 1576,2112 1590,2112 1622,2111 1655,2112 1686,2113 L 1686,2112 C 1688,2112 1688,2103 1688,2100 1688,2080 1689,2059 1689,2037 1689,2023 1688,2008 1691,1995 1708,2003 1705,2024 1706,2043 1706,2054 1707,2067 1707,2079 1706,2086 1705,2092 1705,2099 1704,2108 1707,2119 1703,2128 L 1703,2130 1703,2130 C 1702,2128 1696,2129 1694,2129 1678,2129 1663,2130 1646,2130 1639,2130 1629,2128 1623,2131 1617,2131 1609,2129 1604,2132 1585,2131 1567,2131 1549,2130 1541,2129 1529,2126 1521,2129 1508,2129 1494,2128 1481,2128 1478,2128 1474,2127 1472,2129 1464,2129 1447,2126 1441,2129 1437,2129 1431,2128 1428,2130 1415,2129 1402,2129 1389,2129 1381,2129 1373,2128 1365,2128 1362,2128 1359,2128 1357,2128 1354,2128 1351,2129 1347,2129 1332,2129 1320,2133 1313,2120 1312,2119 1311,2116 1312,2114 1316,2107 1394,2113 1407,2113 Z"/>
        <path fill="rgb(255,255,255)" stroke="none" d="M 1683,2374 C 1683,2349 1682,2322 1682,2296 1683,2288 1681,2280 1683,2273 1683,2270 1685,2269 1686,2267 1692,2267 1696,2267 1701,2269 1702,2269 1702,2280 1702,2283 1701,2288 1702,2294 1702,2300 1702,2309 1701,2317 1702,2326 1702,2336 1705,2361 1700,2368 1697,2372 1688,2373 1683,2374 Z"/>
        <path fill="rgb(255,255,255)" stroke="none" d="M 1995,2337 C 1990,2337 1980,2340 1976,2342 1967,2342 1959,2346 1950,2348 1945,2349 1938,2350 1933,2351 1929,2351 1924,2351 1921,2353 1919,2353 1916,2354 1914,2354 1911,2354 1909,2355 1907,2355 1901,2355 1893,2354 1888,2357 1886,2357 1884,2358 1881,2358 1871,2358 1859,2356 1852,2361 1848,2361 1844,2361 1840,2362 1836,2362 1832,2361 1828,2360 1828,2362 1816,2363 1814,2365 1807,2365 1799,2363 1793,2365 1790,2366 1788,2366 1786,2367 1779,2366 1771,2366 1765,2368 1761,2368 1756,2369 1752,2370 1745,2370 1729,2372 1724,2369 1718,2364 1722,2299 1722,2287 1722,2281 1721,2275 1721,2268 1721,2262 1723,2241 1712,2244 1706,2244 1692,2243 1688,2245 1681,2245 1663,2246 1659,2243 1652,2236 1648,2212 1645,2202 1639,2188 1630,2174 1628,2158 1628,2156 1628,2154 1629,2152 1632,2149 1645,2150 1650,2150 1662,2150 1717,2150 1722,2142 1724,2137 1723,2121 1723,2115 1723,2105 1723,2095 1724,2085 1724,2070 1721,2053 1725,2039 1760,2076 1799,2110 1835,2148 1838,2152 1842,2156 1845,2160 1854,2169 1864,2177 1873,2186 1898,2210 1921,2237 1945,2261 1963,2279 1982,2298 2001,2316 2004,2320 2010,2324 2012,2328 2013,2332 2007,2334 2006,2335 2002,2335 1998,2336 1995,2337 Z"/>
        <path fill="rgb(255,255,255)" stroke="none" d="M 1955,1349 C 1962,1342 1969,1337 1976,1331 1985,1322 1994,1312 2003,1303 2013,1294 2023,1284 2033,1274 2053,1254 2072,1234 2092,1213 2122,1184 2153,1156 2180,1125 2188,1117 2198,1110 2204,1101 2208,1108 2205,1127 2206,1136 2207,1158 2206,1183 2206,1206 2207,1218 2207,1230 2208,1242 2207,1254 2206,1266 2206,1278 2206,1286 2207,1293 2207,1300 2207,1303 2207,1307 2207,1310 2207,1314 2208,1318 2208,1322 2207,1326 2207,1329 2207,1332 2205,1351 2205,1370 2205,1389 2206,1399 2207,1409 2208,1419 2207,1424 2207,1430 2206,1435 2206,1447 2206,1460 2206,1472 2205,1476 2205,1480 2205,1484 2205,1492 2207,1500 2207,1507 2207,1518 2204,1529 2204,1541 2205,1555 2206,1569 2207,1583 2206,1591 2206,1600 2205,1608 2205,1611 2206,1614 2206,1617 2206,1626 2205,1636 2205,1645 2205,1651 2206,1657 2206,1664 2206,1669 2205,1674 2205,1678 2204,1688 2205,1698 2206,1707 2208,1721 2207,1739 2206,1753 2205,1757 2205,1760 2204,1764 2204,1772 2206,1780 2206,1788 2205,1793 2205,1798 2204,1802 2204,1807 2204,1812 2205,1817 2204,1824 2204,1831 2204,1838 2203,1844 2207,1881 2201,1881 2197,1881 2165,1845 2160,1840 2119,1799 2078,1757 2038,1717 2031,1710 2026,1702 2020,1696 2014,1691 2008,1685 2002,1680 1999,1676 1996,1673 1993,1669 1955,1631 1915,1592 1876,1554 1869,1547 1818,1496 1818,1493 1818,1492 1819,1491 1819,1490 1822,1481 1838,1470 1846,1462 1855,1454 1861,1445 1869,1437 1877,1429 1885,1422 1892,1415 1895,1412 1898,1410 1900,1408 1907,1401 1913,1394 1919,1388 1926,1382 1932,1375 1938,1369 1944,1363 1949,1356 1955,1349 Z"/>
        <path fill="rgb(255,255,255)" stroke="none" d="M 1714,796 C 1716,793 1718,790 1720,787 1726,779 1732,772 1738,765 1741,763 1743,761 1745,758 1750,756 1757,757 1763,757 1775,757 1786,757 1797,756 1802,755 1806,755 1811,753 1819,754 1826,754 1834,754 1843,755 1852,757 1862,757 1870,757 1877,754 1885,754 1888,755 1891,755 1893,756 1903,757 1915,757 1924,754 L 1924,755 1925,755 C 1925,756 1925,756 1924,756 1924,757 1923,757 1923,758 1913,771 1899,781 1887,792 1866,813 1844,835 1822,856 1817,861 1812,865 1807,870 1787,890 1770,912 1750,931 1742,938 1735,945 1728,952 1724,955 1720,959 1716,962 1711,968 1707,973 1702,978 1690,991 1677,1003 1664,1016 1658,1023 1652,1030 1646,1037 1633,1050 1619,1063 1606,1076 1583,1099 1560,1122 1537,1144 1530,1151 1523,1160 1514,1166 L 1514,1167 1514,1167 C 1514,1166 1514,1166 1514,1166 L 1512,1166 C 1513,1163 1513,1160 1513,1157 1514,1150 1512,1142 1513,1135 1514,1131 1515,1128 1515,1124 1516,1117 1513,1111 1517,1105 1519,1101 1523,1100 1526,1097 1532,1091 1536,1084 1543,1079 1550,1074 1560,1073 1568,1069 1573,1066 1577,1062 1582,1059 1592,1052 1605,1046 1613,1034 1615,1030 1618,1026 1620,1021 1623,1017 1625,1014 1628,1010 1630,1004 1630,998 1631,993 1633,985 1637,978 1637,969 1637,961 1636,953 1635,946 1634,936 1628,927 1622,919 1619,916 1616,913 1615,909 1613,909 1615,906 1615,905 1617,903 1618,901 1620,898 1627,888 1634,876 1645,869 1650,865 1651,859 1655,854 1660,849 1667,846 1672,840 1674,836 1677,833 1679,830 1682,826 1683,822 1686,818 1689,815 1693,813 1696,810 1699,808 1702,805 1704,803 1708,800 1711,799 1714,796 Z"/>
        <path fill="rgb(255,255,255)" stroke="none" d="M 1147,757 C 1154,758 1162,758 1170,758 1176,758 1182,759 1188,759 L 1214,759 C 1217,760 1221,760 1225,761 1232,761 1242,756 1249,758 1258,761 1266,772 1273,779 1284,789 1295,800 1306,811 1313,819 1320,828 1327,835 1336,845 1346,851 1355,861 1361,867 1364,873 1369,879 1372,881 1375,883 1378,886 1384,891 1390,897 1393,904 1390,904 1385,911 1383,913 1374,922 1368,931 1365,942 1364,947 1364,952 1363,956 1361,964 1359,971 1360,980 1362,985 1363,991 1364,996 1367,1001 1369,1007 1371,1013 1374,1019 1376,1025 1380,1031 1383,1035 1388,1037 1392,1040 1396,1043 1398,1048 1402,1051 1405,1052 1409,1054 1413,1056 1418,1059 1423,1063 1429,1066 1436,1071 1444,1074 1450,1080 1454,1085 1458,1091 1462,1096 1466,1100 1472,1104 1474,1109 1476,1113 1478,1117 1478,1122 1478,1126 1477,1130 1478,1134 1480,1143 1484,1156 1482,1166 1474,1166 1457,1145 1451,1139 1438,1127 1425,1115 1413,1104 1404,1094 1394,1084 1385,1074 1367,1055 1347,1038 1330,1019 1320,1009 1310,999 1300,989 1296,984 1292,980 1288,975 1255,942 1222,910 1189,878 1180,868 1171,859 1163,849 1144,830 1126,811 1106,793 1097,784 1076,771 1072,758 1086,758 1101,758 1115,758 1125,758 1137,759 1147,757 Z"/>
        <path fill="rgb(255,255,255)" stroke="none" d="M 859,1804 C 837,1825 816,1846 795,1867 788,1874 777,1882 772,1890 L 771,1890 C 771,1892 769,1886 768,1885 768,1877 768,1870 768,1862 768,1840 769,1818 769,1795 770,1777 770,1759 770,1742 769,1735 769,1729 769,1723 769,1706 770,1688 770,1670 770,1663 770,1655 769,1648 770,1637 770,1626 770,1614 770,1607 770,1601 770,1594 770,1575 770,1555 770,1536 770,1530 769,1524 769,1519 770,1512 770,1504 771,1497 771,1481 770,1466 770,1450 771,1439 772,1427 772,1415 772,1389 771,1364 771,1339 772,1326 773,1314 774,1302 773,1296 773,1289 772,1283 772,1257 773,1230 773,1205 772,1200 772,1194 772,1189 772,1183 773,1176 773,1170 773,1162 772,1155 772,1147 773,1143 773,1139 774,1134 774,1122 773,1110 773,1098 784,1101 792,1113 800,1121 818,1138 835,1155 853,1172 859,1178 865,1185 871,1191 884,1204 897,1216 909,1230 913,1235 917,1240 922,1244 930,1252 940,1260 948,1269 952,1273 954,1277 958,1280 978,1300 999,1318 1020,1337 1039,1358 1059,1378 1078,1398 1091,1410 1169,1483 1164,1494 1163,1496 1161,1498 1160,1501 1151,1516 1129,1534 1115,1547 1110,1551 1107,1557 1103,1562 1091,1573 1080,1584 1068,1596 1052,1612 1036,1628 1020,1644 1009,1654 999,1665 988,1676 985,1679 983,1682 980,1685 954,1710 927,1735 900,1760 886,1774 873,1790 859,1804 Z"/>
        <path fill="rgb(255,255,255)" stroke="none" d="M 1289,2247 C 1287,2248 1287,2251 1287,2253 1287,2280 1286,2307 1286,2334 1286,2346 1288,2363 1285,2375 1285,2378 1283,2380 1281,2382 L 1281,2383 C 1273,2383 1265,2379 1257,2378 1250,2377 1242,2379 1235,2379 1230,2378 1224,2377 1219,2377 1208,2376 1198,2375 1187,2374 1183,2373 1177,2373 1173,2374 1149,2374 1126,2369 1103,2367 1092,2366 1082,2366 1072,2364 1063,2363 1054,2361 1046,2360 1042,2359 1038,2358 1035,2357 1029,2357 1024,2357 1019,2357 1007,2354 994,2352 982,2350 973,2349 961,2349 953,2345 L 952,2345 952,2343 C 953,2343 952,2343 953,2342 958,2333 969,2324 977,2317 984,2310 991,2303 998,2295 1009,2285 1021,2275 1032,2264 1037,2259 1043,2253 1048,2248 1053,2243 1057,2238 1062,2233 1090,2206 1118,2180 1145,2152 1162,2135 1178,2117 1195,2100 1219,2077 1243,2054 1266,2030 1273,2024 1279,2017 1286,2010 1290,2016 1288,2039 1287,2047 1286,2060 1286,2073 1286,2087 1286,2096 1284,2105 1287,2112 1290,2119 1295,2126 1299,2132 1302,2136 1303,2141 1307,2143 1313,2147 1333,2147 1341,2147 1356,2146 1370,2146 1386,2146 1386,2155 1380,2168 1376,2176 1370,2192 1364,2207 1358,2223 1356,2229 1354,2237 1350,2241 1347,2245 1343,2242 1339,2244 1337,2244 1335,2245 1332,2245 1324,2245 1294,2243 1289,2247 Z"/>
        <path fill="rgb(255,255,255)" stroke="none" d="M 1372,2413 C 1364,2410 1356,2409 1349,2405 L 1348,2405 1348,2404 1349,2404 C 1349,2402 1349,2403 1350,2403 1365,2403 1435,2405 1441,2399 1445,2396 1445,2383 1445,2378 1445,2345 1441,2301 1471,2284 1476,2282 1480,2281 1485,2279 1493,2279 1514,2282 1513,2294 1513,2296 1509,2296 1507,2297 1487,2299 1483,2310 1475,2325 1468,2338 1470,2360 1469,2376 1469,2392 1468,2408 1468,2424 L 1467,2424 C 1467,2426 1457,2424 1455,2425 1449,2425 1444,2426 1439,2427 1427,2426 1414,2426 1402,2426 1391,2425 1381,2417 1372,2413 Z"/>
        <path fill="rgb(255,255,255)" stroke="none" d="M 1505,2460 C 1496,2469 1487,2477 1482,2488 L 1481,2488 C 1474,2481 1468,2474 1462,2467 1456,2462 1443,2454 1436,2451 L 1436,2450 1435,2450 1435,2449 1436,2449 C 1436,2447 1438,2448 1439,2448 1443,2447 1447,2446 1450,2445 1462,2445 1474,2445 1486,2444 1487,2442 1487,2440 1488,2438 1488,2433 1489,2428 1489,2423 1489,2418 1488,2413 1488,2409 1488,2404 1488,2399 1488,2394 1488,2384 1487,2373 1488,2363 1489,2357 1490,2351 1491,2346 1493,2339 1495,2330 1499,2325 1504,2319 1511,2320 1517,2317 1519,2318 1522,2319 1522,2322 1525,2328 1523,2337 1523,2345 1523,2362 1523,2380 1523,2398 1524,2402 1527,2405 1529,2409 1531,2415 1533,2420 1536,2426 1537,2426 1537,2426 1537,2427 1532,2435 1523,2441 1516,2447 1513,2451 1509,2455 1505,2460 Z"/>
        <path fill="rgb(255,255,255)" stroke="none" d="M 1547,2400 C 1552,2400 1558,2400 1563,2399 1574,2399 1586,2400 1597,2400 L 1597,2402 C 1593,2402 1589,2405 1585,2407 1576,2411 1567,2415 1557,2419 1557,2420 1557,2420 1556,2419 1551,2415 1548,2406 1547,2400 Z"/>
        <path fill="rgb(255,255,255)" stroke="none" d="M 1206,1556 C 1205,1545 1205,1535 1204,1524 1204,1507 1206,1490 1207,1473 1206,1463 1205,1453 1205,1443 1205,1435 1206,1427 1206,1419 1205,1412 1205,1404 1204,1396 1204,1383 1208,1372 1208,1359 1208,1352 1207,1345 1206,1338 1207,1334 1207,1330 1207,1326 1208,1311 1210,1296 1210,1281 1210,1271 1208,1255 1211,1246 1214,1236 1241,1205 1251,1201 L 1251,1200 C 1253,1208 1252,1218 1251,1226 1250,1236 1249,1246 1250,1257 1250,1263 1251,1270 1251,1277 1251,1290 1252,1303 1252,1316 1251,1322 1251,1327 1250,1333 1250,1340 1251,1347 1251,1353 1251,1372 1250,1392 1250,1411 1251,1431 1248,1452 1248,1471 1249,1479 1250,1486 1250,1494 1250,1509 1250,1524 1250,1540 1250,1547 1249,1554 1249,1561 1249,1573 1249,1585 1249,1597 1249,1611 1251,1636 1247,1648 1245,1652 1240,1654 1238,1658 1235,1662 1232,1667 1228,1671 1225,1674 1222,1678 1219,1681 1215,1687 1212,1694 1208,1700 L 1207,1700 1207,1701 1206,1701 C 1206,1682 1204,1661 1203,1642 1203,1631 1205,1618 1206,1608 1206,1599 1204,1592 1204,1584 1204,1575 1206,1565 1206,1556 Z"/>
        <path fill="rgb(255,255,255)" stroke="none" d="M 1242,1686 C 1247,1681 1252,1676 1258,1672 1284,1655 1325,1655 1357,1662 1363,1663 1369,1665 1376,1667 1396,1671 1415,1673 1432,1683 1443,1690 1453,1699 1463,1708 1466,1710 1469,1712 1471,1713 1476,1717 1481,1725 1488,1725 1497,1724 1503,1712 1511,1707 1518,1701 1526,1695 1535,1691 1559,1679 1583,1667 1609,1661 1619,1659 1628,1656 1638,1654 1643,1653 1650,1654 1654,1652 1662,1652 1670,1652 1679,1652 1692,1654 1706,1661 1717,1669 1722,1674 1726,1679 1731,1685 1738,1693 1746,1701 1748,1712 L 1746,1712 C 1746,1714 1738,1713 1736,1713 1715,1713 1694,1713 1672,1713 1664,1713 1654,1711 1648,1715 1641,1715 1631,1710 1624,1714 1622,1714 1620,1714 1617,1715 1609,1715 1599,1713 1593,1716 1589,1716 1585,1717 1583,1718 1576,1718 1561,1717 1556,1719 1553,1720 1550,1720 1547,1720 1544,1721 1541,1721 1538,1721 1533,1721 1527,1722 1524,1725 1522,1725 1523,1731 1523,1732 1524,1750 1510,1767 1492,1767 1477,1767 1465,1756 1462,1742 1461,1737 1462,1731 1459,1727 1458,1725 1456,1724 1453,1725 1446,1725 1439,1724 1432,1724 1430,1724 1429,1724 1427,1725 1410,1725 1395,1723 1378,1723 1374,1722 1367,1722 1364,1723 1352,1723 1340,1722 1327,1722 1321,1722 1314,1722 1309,1724 1291,1724 1273,1723 1255,1723 1249,1723 1240,1721 1235,1724 1229,1724 1224,1723 1220,1722 1220,1717 1222,1714 1223,1710 1228,1698 1232,1695 1242,1686 Z"/>
        <path fill="rgb(255,255,255)" stroke="none" d="M 1759,1440 L 1757,1440 C 1754,1432 1755,1424 1755,1414 1755,1402 1753,1390 1759,1380 1762,1380 1764,1381 1766,1384 1769,1391 1768,1440 1759,1440 Z M 1744,1315 C 1736,1314 1734,1308 1739,1301 1743,1303 1748,1315 1744,1315 L 1744,1315 Z M 1735,1467 C 1733,1464 1734,1459 1734,1456 1733,1447 1733,1436 1733,1426 1733,1414 1733,1401 1733,1388 1733,1377 1732,1366 1736,1358 1739,1360 1742,1362 1743,1366 1746,1377 1743,1390 1743,1402 1743,1419 1747,1449 1741,1463 1741,1464 1735,1473 1735,1467 Z M 1774,1278 C 1774,1273 1774,1268 1774,1263 1774,1261 1774,1252 1772,1252 L 1772,1251 1769,1251 C 1767,1271 1768,1292 1768,1314 1768,1322 1764,1328 1764,1335 1764,1339 1764,1343 1764,1347 1763,1351 1763,1355 1763,1358 1758,1359 1754,1358 1753,1353 1752,1346 1755,1340 1755,1334 1754,1330 1754,1325 1753,1321 1753,1297 1755,1271 1755,1247 1755,1243 1754,1239 1754,1235 1753,1233 1753,1231 1752,1229 L 1749,1229 1749,1230 1748,1230 C 1748,1247 1746,1263 1745,1280 1744,1283 1743,1286 1743,1289 L 1740,1289 C 1734,1276 1736,1258 1736,1242 1736,1234 1737,1225 1734,1218 1731,1223 1731,1229 1731,1236 1730,1244 1729,1254 1730,1263 1730,1272 1732,1282 1731,1291 1726,1349 1729,1407 1729,1466 1728,1478 1728,1490 1728,1501 1727,1512 1725,1523 1725,1533 1725,1548 1726,1563 1726,1579 1726,1593 1724,1610 1725,1625 1725,1627 1725,1632 1728,1632 L 1728,1633 1729,1633 1729,1632 1730,1632 C 1732,1623 1732,1613 1732,1603 1733,1587 1735,1571 1734,1555 1734,1544 1732,1531 1735,1521 1736,1520 1737,1519 1739,1520 1743,1521 1744,1527 1744,1530 1746,1543 1744,1555 1743,1568 1743,1578 1743,1588 1743,1598 1743,1610 1742,1621 1744,1632 1744,1638 1743,1644 1745,1649 1746,1652 1746,1659 1751,1659 1752,1643 1753,1624 1753,1607 1752,1598 1752,1590 1751,1582 1752,1574 1753,1566 1754,1558 1755,1552 1755,1547 1756,1541 1756,1534 1754,1527 1753,1520 1752,1509 1752,1497 1752,1485 1752,1479 1752,1473 1754,1467 1754,1466 1757,1464 1757,1462 L 1758,1462 C 1762,1465 1764,1468 1765,1473 1766,1486 1765,1501 1765,1514 1764,1518 1763,1522 1763,1527 1763,1538 1766,1550 1766,1562 1766,1567 1766,1571 1766,1576 1765,1597 1765,1615 1765,1636 1765,1651 1767,1667 1768,1681 1768,1684 1767,1686 1767,1689 L 1771,1689 C 1775,1680 1774,1669 1774,1659 1775,1647 1776,1634 1775,1622 1774,1614 1773,1606 1772,1598 1772,1590 1774,1583 1775,1574 1775,1561 1773,1550 1773,1537 1774,1524 1774,1511 1775,1498 L 1775,1467 C 1775,1463 1774,1459 1774,1455 1774,1449 1775,1443 1776,1437 1775,1426 1775,1416 1775,1405 1775,1389 1776,1373 1776,1357 1776,1339 1777,1323 1777,1307 1777,1297 1775,1287 1774,1278 Z"/>
        <path fill="rgb(255,255,255)" stroke="none" d="M 1654,1293 C 1643,1296 1631,1300 1620,1303 1604,1308 1588,1314 1573,1321 1563,1327 1552,1333 1542,1339 1540,1340 1526,1348 1526,1344 L 1525,1344 C 1526,1333 1538,1326 1547,1321 1551,1318 1555,1315 1559,1312 1569,1306 1580,1299 1591,1294 1603,1289 1615,1286 1628,1282 1632,1280 1636,1278 1640,1276 1645,1274 1651,1272 1656,1270 1661,1270 1666,1270 1669,1271 1677,1274 1673,1284 1668,1287 1664,1290 1659,1291 1654,1293 Z M 1667,1536 C 1658,1541 1647,1541 1638,1543 1629,1545 1620,1548 1611,1550 1581,1557 1556,1569 1530,1584 1527,1586 1518,1594 1515,1588 1513,1584 1519,1580 1521,1578 1532,1569 1542,1563 1553,1556 1565,1549 1577,1542 1590,1537 1595,1534 1599,1532 1603,1530 1620,1523 1637,1519 1654,1513 1659,1513 1664,1514 1668,1515 1676,1520 1674,1532 1667,1536 Z M 1611,1407 C 1620,1403 1631,1396 1643,1396 1646,1393 1655,1389 1660,1389 L 1660,1388 C 1666,1389 1670,1392 1670,1399 1670,1404 1668,1409 1663,1412 1654,1418 1644,1419 1633,1422 1622,1426 1610,1431 1598,1434 1590,1437 1582,1438 1575,1441 1561,1447 1547,1454 1535,1462 1530,1464 1526,1469 1520,1469 1518,1469 1517,1469 1516,1468 1511,1463 1522,1456 1525,1453 1549,1431 1581,1419 1611,1407 Z M 1712,1397 C 1711,1371 1713,1345 1713,1321 1713,1313 1712,1305 1712,1297 1712,1278 1712,1259 1711,1240 1710,1234 1709,1228 1708,1223 1707,1216 1709,1208 1709,1201 1709,1199 1709,1192 1707,1192 1702,1190 1696,1191 1690,1191 1684,1190 1677,1189 1670,1189 1662,1192 1653,1191 1645,1192 1607,1199 1572,1205 1539,1222 1531,1226 1523,1231 1517,1238 1512,1244 1512,1251 1511,1258 1508,1276 1508,1294 1508,1313 1507,1323 1506,1332 1505,1342 1505,1356 1505,1369 1505,1383 1504,1389 1504,1394 1503,1400 1502,1413 1502,1427 1502,1439 1501,1459 1502,1479 1503,1497 1503,1515 1502,1535 1502,1553 1503,1558 1503,1563 1503,1569 1503,1572 1503,1575 1502,1578 1502,1586 1504,1595 1504,1604 1504,1629 1503,1661 1513,1681 1514,1682 1517,1687 1517,1685 1528,1680 1538,1671 1548,1666 1558,1661 1568,1657 1577,1653 1589,1646 1595,1642 1610,1642 1614,1640 1626,1637 1632,1637 1634,1637 1637,1637 1639,1636 1641,1636 1643,1636 1645,1635 1656,1630 1681,1635 1692,1638 1697,1639 1703,1640 1708,1642 1711,1626 1708,1608 1708,1593 1709,1584 1709,1575 1710,1567 1710,1555 1709,1544 1709,1534 1710,1529 1710,1523 1711,1518 1711,1505 1711,1493 1711,1480 1712,1473 1713,1465 1713,1458 1713,1444 1714,1430 1713,1415 1713,1409 1712,1403 1712,1397 Z"/>
        <path fill="rgb(255,255,255)" stroke="none" d="M 1464,1352 C 1458,1350 1453,1345 1448,1342 1442,1338 1436,1335 1430,1332 1399,1316 1363,1306 1329,1297 1319,1294 1306,1295 1297,1289 1290,1285 1290,1276 1296,1270 1311,1270 1323,1275 1336,1279 1340,1280 1344,1281 1348,1281 1356,1284 1365,1287 1373,1291 1380,1293 1387,1296 1394,1298 1398,1300 1401,1302 1405,1304 1415,1308 1424,1313 1435,1318 1441,1321 1475,1342 1471,1350 1470,1352 1466,1352 1464,1352 Z M 1465,1478 C 1464,1478 1464,1478 1464,1478 1457,1479 1428,1455 1419,1451 1409,1446 1398,1442 1388,1438 1374,1433 1360,1427 1344,1424 1338,1424 1332,1423 1326,1422 1318,1422 1305,1424 1299,1419 1291,1413 1296,1396 1306,1396 L 1306,1396 C 1351,1399 1390,1419 1426,1440 1436,1445 1461,1461 1466,1471 1467,1472 1469,1477 1467,1477 1466,1477 1466,1477 1465,1478 Z M 1388,1567 C 1381,1565 1375,1565 1368,1563 1358,1561 1348,1558 1337,1557 1326,1555 1314,1554 1303,1552 1302,1551 1300,1551 1299,1551 1290,1545 1290,1528 1303,1528 L 1303,1527 C 1311,1527 1317,1529 1325,1530 1332,1532 1339,1533 1347,1534 1353,1537 1359,1539 1365,1541 1383,1547 1400,1553 1417,1561 1421,1563 1425,1564 1429,1565 1438,1570 1453,1580 1459,1588 1462,1591 1466,1593 1466,1598 1458,1599 1450,1591 1443,1588 1425,1580 1407,1573 1388,1567 Z M 1472,1237 C 1456,1216 1434,1208 1411,1199 1405,1197 1398,1195 1392,1193 1385,1191 1378,1190 1371,1189 1360,1186 1348,1184 1336,1183 1320,1183 1304,1183 1288,1183 1283,1185 1275,1184 1272,1189 1268,1194 1270,1212 1270,1219 1270,1247 1269,1274 1269,1303 1268,1319 1268,1336 1268,1353 1267,1366 1266,1380 1266,1394 1265,1404 1269,1413 1269,1424 1268,1444 1268,1467 1267,1488 1267,1497 1266,1506 1266,1514 1265,1532 1266,1549 1266,1567 1266,1576 1265,1585 1264,1593 1264,1602 1267,1609 1266,1617 1266,1626 1265,1635 1265,1644 1268,1644 1272,1645 1276,1645 1279,1643 1283,1642 1286,1642 1289,1641 1293,1641 1296,1641 1299,1640 1301,1640 1303,1640 1313,1635 1339,1641 1349,1642 1362,1645 1373,1644 1386,1647 1400,1650 1422,1658 1434,1665 1439,1668 1464,1687 1466,1687 L 1466,1686 C 1472,1676 1472,1665 1473,1652 1476,1637 1476,1621 1477,1605 1477,1582 1479,1558 1479,1534 1479,1524 1479,1513 1478,1503 1479,1474 1479,1445 1480,1417 1481,1372 1484,1324 1480,1279 1478,1264 1480,1249 1472,1237 Z"/>
        <path fill="rgb(237,17,76)" stroke="none" d="M 1370,390 C 1356,393 1343,395 1329,395 1297,401 1266,407 1234,414 1190,423 1147,441 1107,458 1030,490 958,526 889,572 873,583 758,663 758,675 777,677 796,678 814,680 859,682 906,681 951,681 979,682 1006,684 1034,685 1045,680 1062,682 1075,682 1113,682 1149,685 1185,685 1203,677 1233,684 1253,685 L 1436,685 C 1504,686 1572,688 1641,689 1767,687 1893,686 2018,684 2028,681 2042,684 2053,684 2074,685 2096,685 2118,686 2130,685 2141,685 2152,684 2174,685 2198,687 2221,686 2226,686 2240,687 2245,687 2261,687 2233,665 2228,660 2212,642 2194,629 2176,617 2164,608 2153,599 2142,590 2119,575 2096,559 2073,544 1929,457 1790,406 1611,388 1585,388 1559,387 1533,387 1495,386 1455,385 1416,385 1401,387 1385,389 1370,390 Z"/>
        <path fill="rgb(237,17,76)" stroke="none" d="M 643,787 C 611,830 578,874 546,918 477,1033 436,1153 406,1287 401,1309 402,1330 399,1353 389,1463 386,1588 404,1697 408,1715 413,1733 418,1751 424,1781 428,1808 437,1836 447,1859 456,1882 465,1905 477,1938 494,1968 510,2000 548,2074 592,2144 645,2211 653,2220 673,2248 687,2248 L 687,2245 C 697,2225 690,2163 689,2138 689,2095 689,2053 689,2011 689,1973 687,1934 689,1894 693,1810 689,1723 691,1638 692,1566 696,1492 696,1419 695,1350 691,1274 697,1207 697,1200 696,1192 696,1185 696,1164 695,1142 695,1121 696,1092 698,1063 699,1034 697,971 697,907 695,843 694,799 699,756 698,732 682,748 659,771 643,787 Z"/>
        <path fill="rgb(237,17,76)" stroke="none" d="M 2308,893 C 2307,991 2306,1088 2306,1188 2307,1353 2307,1502 2307,1661 2307,1750 2302,1839 2307,1929 2306,1966 2306,2002 2306,2039 2306,2106 2314,2176 2300,2241 2299,2245 2290,2274 2297,2274 2320,2274 2425,2121 2440,2097 2451,2077 2462,2058 2472,2039 2478,2025 2484,2012 2490,1999 2510,1962 2534,1918 2548,1878 2576,1794 2594,1706 2606,1613 2610,1583 2609,1553 2609,1521 2610,1504 2611,1487 2611,1470 2610,1378 2599,1282 2576,1201 2553,1121 2516,1043 2476,970 2462,945 2445,922 2429,897 2409,865 2319,728 2305,738 2302,781 2309,848 2308,893 Z"/>
        <path fill="rgb(237,17,76)" stroke="none" d="M 1884,2452 C 1863,2455 1841,2457 1820,2460 1717,2465 1581,2475 1544,2580 1540,2592 1541,2594 1537,2606 1535,2616 1583,2606 1605,2606 1611,2603 1621,2604 1629,2604 1634,2603 1639,2602 1644,2601 1656,2595 1675,2594 1690,2594 1700,2589 1714,2589 1727,2589 1740,2582 1773,2577 1790,2577 1819,2567 1848,2557 1877,2547 1960,2513 2048,2479 2118,2423 2129,2415 2142,2412 2159,2390 2096,2437 1966,2442 1884,2452 Z"/>
        <path fill="rgb(237,17,76)" stroke="none" d="M 941,2453 C 954,2463 974,2473 986,2482 1036,2506 1074,2526 1125,2543 1181,2561 1236,2579 1296,2590 1317,2594 1456,2619 1461,2606 1470,2585 1424,2533 1408,2520 1394,2508 1376,2500 1360,2491 1344,2482 1326,2477 1309,2473 1286,2466 1264,2459 1240,2455 1217,2451 1194,2451 1169,2449 1148,2445 1127,2442 1106,2438 1078,2435 1051,2435 1023,2431 973,2425 926,2414 874,2411 893,2433 919,2438 941,2453 Z"/>
        <path fill="rgb(14,43,88)" stroke="none" d="M 3965,2094 C 4057,2094 4110,2052 4110,1989 4110,1919 4056,1910 3952,1885 3824,1854 3758,1826 3758,1725 3758,1623 3838,1553 3965,1553 4093,1553 4171,1623 4171,1738 L 4097,1738 C 4091,1661 4042,1618 3960,1618 3881,1618 3833,1656 3833,1711 3833,1785 3887,1790 4008,1819 4064,1832 4109,1842 4141,1869 4171,1895 4188,1933 4188,1980 4188,2090 4105,2162 3966,2162 3826,2162 3745,2089 3739,1956 L 3815,1956 C 3817,2041 3875,2094 3965,2094 Z"/>
        <path fill="rgb(14,43,88)" stroke="none" d="M 4315,1935 C 4315,2039 4358,2096 4430,2096 4496,2096 4536,2061 4546,1996 L 4614,1996 C 4606,2099 4538,2160 4427,2160 4313,2160 4242,2077 4242,1938 4242,1796 4316,1713 4435,1713 4542,1713 4609,1773 4613,1866 L 4543,1866 C 4539,1809 4500,1776 4435,1776 4359,1776 4315,1832 4315,1935 Z"/>
        <path fill="rgb(14,43,88)" stroke="none" d="M 4870,1779 C 4794,1779 4745,1825 4745,1898 L 4745,2147 4675,2147 4675,1569 4745,1569 4745,1786 C 4771,1740 4817,1716 4877,1716 4941,1716 4984,1735 5008,1773 5025,1800 5026,1833 5026,1874 L 5026,1894 5026,2147 4955,2147 4955,1888 C 4955,1814 4939,1779 4870,1779 Z"/>
        <path fill="rgb(14,43,88)" stroke="none" d="M 5283,2097 C 5365,2097 5411,2041 5411,1936 5411,1832 5365,1775 5283,1775 5199,1775 5153,1832 5153,1936 5153,2041 5200,2097 5283,2097 Z M 5484,1936 C 5484,2079 5409,2160 5283,2160 5156,2160 5081,2079 5081,1936 5081,1794 5156,1713 5282,1713 5409,1713 5484,1794 5484,1936 Z"/>
        <path fill="rgb(14,43,88)" stroke="none" d="M 5736,2097 C 5818,2097 5864,2041 5864,1936 5864,1832 5818,1775 5736,1775 5652,1775 5606,1832 5606,1936 5606,2041 5653,2097 5736,2097 Z M 5937,1936 C 5937,2079 5862,2160 5736,2160 5608,2160 5534,2079 5534,1936 5534,1794 5608,1713 5735,1713 5862,1713 5937,1794 5937,1936 Z"/>
        <path fill="rgb(14,43,88)" stroke="none" d="M 6079,1569 L 6079,2147 6007,2147 6007,1569 6079,1569 Z"/>
        <path fill="rgb(14,43,88)" stroke="none" d="M 6548,2097 C 6631,2097 6676,2041 6676,1936 6676,1832 6631,1775 6548,1775 6465,1775 6419,1832 6419,1936 6419,2041 6466,2097 6548,2097 Z M 6750,1936 C 6750,2079 6675,2160 6548,2160 6421,2160 6346,2079 6346,1936 6346,1794 6421,1713 6548,1713 6675,1713 6750,1794 6750,1936 Z"/>
        <path fill="rgb(14,43,88)" stroke="none" d="M 6766,1783 L 6766,1726 6835,1726 6835,1664 C 6835,1595 6866,1560 6930,1560 6943,1560 6960,1562 6982,1565 L 6982,1629 C 6969,1626 6957,1625 6951,1625 6914,1625 6907,1646 6907,1691 L 6907,1726 6982,1726 6982,1783 6907,1783 6907,2147 6835,2147 6835,1783 6766,1783 Z"/>
        <path fill="rgb(14,43,88)" stroke="none" d="M 7692,1569 L 7692,1640 7357,1640 7357,1813 7666,1813 7666,1881 7357,1881 7357,2075 7698,2075 7698,2147 7279,2147 7279,1569 7692,1569 Z"/>
        <path fill="rgb(14,43,88)" stroke="none" d="M 7957,1779 C 7879,1779 7832,1824 7832,1907 L 7832,2147 7761,2147 7761,1726 7829,1726 7829,1787 C 7861,1739 7905,1716 7964,1716 8028,1716 8071,1735 8094,1773 8112,1800 8113,1833 8113,1874 L 8113,1894 8113,2147 8041,2147 8041,1888 C 8041,1813 8024,1779 7957,1779 Z"/>
        <path fill="rgb(14,43,88)" stroke="none" d="M 8377,2097 C 8463,2097 8503,2046 8503,1939 8503,1832 8460,1776 8376,1776 8297,1776 8252,1832 8252,1937 8252,2039 8300,2097 8377,2097 Z M 8178,1935 C 8178,1801 8254,1713 8368,1713 8432,1713 8469,1740 8501,1779 L 8501,1726 8569,1726 8569,2138 C 8569,2266 8513,2322 8373,2322 8259,2322 8195,2275 8195,2199 L 8195,2196 8264,2196 8264,2198 C 8264,2241 8301,2263 8375,2263 8466,2263 8501,2230 8501,2154 L 8501,2096 C 8468,2139 8424,2161 8367,2161 8255,2161 8178,2072 8178,1935 Z"/>
        <path fill="rgb(14,43,88)" stroke="none" d="M 8658,1726 L 8729,1726 8729,2147 8658,2147 8658,1726 Z M 8729,1569 L 8729,1649 8658,1649 8658,1569 8729,1569 Z"/>
        <path fill="rgb(14,43,88)" stroke="none" d="M 9012,1779 C 8934,1779 8888,1824 8888,1907 L 8888,2147 8817,2147 8817,1726 8884,1726 8884,1787 C 8916,1739 8961,1716 9019,1716 9083,1716 9127,1735 9150,1773 9168,1800 9168,1833 9168,1874 L 9168,1894 9168,2147 9097,2147 9097,1888 C 9097,1813 9080,1779 9012,1779 Z"/>
        <path fill="rgb(14,43,88)" stroke="none" d="M 9541,1898 C 9540,1819 9499,1775 9427,1775 9357,1775 9316,1818 9310,1898 L 9541,1898 Z M 9425,2161 C 9309,2161 9236,2078 9236,1941 9236,1795 9309,1713 9425,1713 9545,1713 9615,1789 9615,1926 9615,1936 9615,1947 9614,1957 L 9310,1957 C 9311,2046 9357,2096 9431,2096 9489,2096 9528,2066 9539,2011 L 9609,2011 C 9594,2104 9524,2161 9425,2161 Z"/>
        <path fill="rgb(14,43,88)" stroke="none" d="M 9969,1898 C 9968,1819 9927,1775 9855,1775 9785,1775 9744,1818 9738,1898 L 9969,1898 Z M 9853,2161 C 9737,2161 9664,2078 9664,1941 9664,1795 9737,1713 9853,1713 9973,1713 10043,1789 10043,1926 10043,1936 10043,1947 10042,1957 L 9738,1957 C 9739,2046 9785,2096 9859,2096 9917,2096 9956,2066 9967,2011 L 10037,2011 C 10022,2104 9952,2161 9853,2161 Z"/>
        <path fill="rgb(14,43,88)" stroke="none" d="M 10179,1726 L 10179,1802 C 10202,1745 10240,1717 10296,1717 10302,1717 10308,1717 10314,1718 L 10314,1793 C 10309,1792 10303,1792 10297,1792 10222,1792 10182,1834 10182,1913 L 10182,2147 10111,2147 10111,1726 10179,1726 Z"/>
        <path fill="rgb(14,43,88)" stroke="none" d="M 10363,1726 L 10434,1726 10434,2147 10363,2147 10363,1726 Z M 10434,1569 L 10434,1649 10363,1649 10363,1569 10434,1569 Z"/>
        <path fill="rgb(14,43,88)" stroke="none" d="M 10717,1779 C 10639,1779 10593,1824 10593,1907 L 10593,2147 10522,2147 10522,1726 10590,1726 10590,1787 C 10622,1739 10666,1716 10725,1716 10788,1716 10832,1735 10855,1773 10873,1800 10874,1833 10874,1874 L 10874,1894 10874,2147 10802,2147 10802,1888 C 10802,1813 10785,1779 10717,1779 Z"/>
        <path fill="rgb(14,43,88)" stroke="none" d="M 11137,2097 C 11224,2097 11264,2046 11264,1939 11264,1832 11220,1776 11137,1776 11058,1776 11013,1832 11013,1937 11013,2039 11060,2097 11137,2097 Z M 10939,1935 C 10939,1801 11014,1713 11129,1713 11192,1713 11230,1740 11261,1779 L 11261,1726 11330,1726 11330,2138 C 11330,2266 11273,2322 11133,2322 11020,2322 10956,2275 10956,2199 L 10956,2196 11025,2196 11025,2198 C 11025,2241 11062,2263 11136,2263 11227,2263 11261,2230 11261,2154 L 11261,2096 C 11228,2139 11184,2161 11128,2161 11015,2161 10939,2072 10939,1935 Z"/>
       </g>
      </g>
     </g>
    </g>
   </g>
  </g>
 </g>
</svg>