<svg fill="#000000" xmlns="http://www.w3.org/2000/svg"  viewBox="0 0 50 50" width="250px" height="250px"><path d="M 3 5 C 1.9069372 5 1 5.9069372 1 7 L 1 37 C 1 38.093063 1.9069372 39 3 39 L 22 39 L 22 43 L 15 43 A 1.0001 1.0001 0 1 0 15 45 L 23 45 L 27 45 L 35 45 A 1.0001 1.0001 0 1 0 35 43 L 28 43 L 28 39 L 47 39 C 48.093063 39 49 38.093063 49 37 L 49 7 C 49 5.9069372 48.093063 5 47 5 L 3 5 z M 3 7 L 47 7 L 47 37 L 27 37 A 1.0001 1.0001 0 0 0 26 38 L 26 43 L 24 43 L 24 38 A 1.0001 1.0001 0 0 0 23 37 L 3 37 L 3 7 z M 25 9 C 22.487502 9 20.161638 9.7623197 18.171875 11 L 11 11 A 1.0001 1.0001 0 1 0 11 13 L 18.673828 13 L 18.925781 12.832031 C 20.668727 11.674348 22.749734 11 25 11 C 27.250266 11 29.331273 11.674348 31.074219 12.832031 L 31.326172 13 L 39 13 A 1.0001 1.0001 0 1 0 39 11 L 31.828125 11 C 29.838362 9.7623197 27.512498 9 25 9 z M 25 13 C 22.897416 13 21.001505 13.788961 19.470703 15 L 9 15 A 1.0001 1.0001 0 1 0 9 17 L 20.097656 17 L 20.382812 16.75 C 21.618651 15.661514 23.224877 15 25 15 C 26.775123 15 28.381349 15.661514 29.617188 16.75 L 29.902344 17 L 41 17 A 1.0001 1.0001 0 1 0 41 15 L 30.529297 15 C 28.998495 13.788961 27.102584 13 25 13 z M 25 17 C 22.250421 17 20 19.250421 20 22 C 20 24.749579 22.250421 27 25 27 C 27.749579 27 30 24.749579 30 22 C 30 19.250421 27.749579 17 25 17 z M 25 19 C 26.668699 19 28 20.331301 28 22 C 28 23.668699 26.668699 25 25 25 C 23.331301 25 22 23.668699 22 22 C 22 20.331301 23.331301 19 25 19 z M 9 26 A 1.0001 1.0001 0 1 0 9 28 L 18.447266 28 C 20.091291 29.790455 22.380551 31 25 31 C 27.620373 31 29.910122 29.791214 31.554688 28 L 41 28 A 1.0001 1.0001 0 1 0 41 26 L 30.759766 26 L 30.460938 26.373047 C 29.175227 27.97427 27.21642 29 25 29 C 22.78358 29 20.823524 27.975758 19.539062 26.375 L 19.240234 26 L 9 26 z M 11 30 A 1.0001 1.0001 0 1 0 11 32 L 16.830078 32 C 19.067334 33.830185 21.883761 35 25 35 C 28.116239 35 30.932666 33.830185 33.169922 32 L 39 32 A 1.0001 1.0001 0 1 0 39 30 L 32.541016 30 L 32.257812 30.25 C 30.316826 31.95961 27.789356 33 25 33 C 22.210644 33 19.683174 31.95961 17.742188 30.25 L 17.458984 30 L 11 30 z"/></svg>